<svg version="1.1" xmlns="http://www.w3.org/2000/svg" style="display: block;" viewBox="0 0 2048 2048" width="1024" height="1024" preserveAspectRatio="none">
<path transform="translate(0,0)" fill="rgb(231,231,231)" d="M 0 0 L 132.012 0 L 260.032 0 L 389.947 0 L 516.904 0 L 642.449 0 L 770.934 0 L 901.193 0 L 1028.98 0 L 1154.51 0 L 1660.74 0 L 1790.06 0 L 1917.99 0 L 2048 0 L 2048 142.002 L 2048 278.973 L 2048 417.948 L 2048 695.107 L 2048 832.213 L 2048 1630.71 L 2048 1769.54 L 2048 1907.56 L 2048 2048 L 1918.04 2048 L 1790.31 2048 L 1660.69 2048 L 1532.3 2048 L 1278.54 2048 L 1154.22 2048 L 1028.99 2048 L 900.989 2048 L 770.9 2048 L 517.178 2048 L 388.682 2048 L 260.407 2048 L 131.551 2048 L 0 2048 L 0 1908.54 L 0 1768.79 L 0 1631.34 L 0 1492.04 L 0 1355.39 L 0 1217.35 L 0 1104.56 L 84.3177 1104.86 C 99.2952 1104.88 117.09 1105.3 131.882 1104.41 L 260.74 1104.54 C 260.968 1142 260.923 1179.46 260.605 1216.91 C 292.028 1217.08 327.204 1216.27 358.251 1217.2 C 364.385 1197.68 372.494 1188.51 389.67 1178.08 C 427.462 1161.5 469.45 1172.49 507.081 1185.47 L 516.901 1189.24 C 521.326 1190.95 526.466 1192.78 530.708 1194.77 C 547.992 1202.33 562.137 1209.75 578.907 1217.85 C 596.613 1228.24 623.566 1243.55 639.132 1256.57 C 641.442 1249.8 643.579 1242.97 645.541 1236.09 C 647.467 1229.81 649.43 1223.53 651.431 1217.27 C 662.61 1179.56 674.062 1141.92 685.788 1104.38 C 691.046 1090.22 694.921 1073.95 700.425 1059.31 L 701.579 1053.81 C 700.106 1052.93 685.867 1047.5 683.331 1046.53 C 669.636 1041.3 656.476 1036.1 643.006 1030.3 C 601.977 1012.21 574.001 999.279 539.446 969.641 C 532.272 962.566 525.514 955.08 519.208 947.221 L 512.202 935.806 C 506.025 930.438 506.651 925.448 510.72 919.21 C 514.131 911.111 517.823 902.725 520.765 894.477 L 519.417 894.087 C 516.228 888.996 516.962 841.711 516.965 831.916 C 516.38 786.638 517.02 741.18 516.668 695.864 C 522.911 695.543 530.161 696.22 536.047 694.717 C 507.164 648.112 498.846 613.568 503.412 558.697 L 502.613 556.709 C 498.241 555.577 474.102 556.347 467.91 556.37 L 388.925 556.491 C 387.94 512.677 388.248 461.898 389.041 418.021 L 260.224 417.849 C 245.79 417.057 231.012 417.603 216.503 417.631 C 188.323 417.732 160.142 417.604 131.964 417.246 C 92.9294 419.42 40.0298 417.88 0 417.836 L 0 279.673 L 0 141.813 L 0 0 z"/>
<path transform="translate(0,0)" fill="rgb(231,231,231)" d="M 0 0 L 132.012 0 L 260.032 0 L 389.947 0 L 516.904 0 L 642.449 0 L 770.934 0 L 901.193 0 L 1028.98 0 L 1154.51 0 L 1660.74 0 L 1790.06 0 L 1917.99 0 L 2048 0 L 2048 142.002 L 2048 278.973 L 2048 417.948 L 2048 695.107 L 1918 694.961 L 1918.05 831.685 C 1890.05 831.972 1862.04 832.078 1834.03 832.001 C 1820.81 832.001 1802.95 831.477 1790.06 832.14 C 1755.28 834.143 1697.22 833.414 1661.67 832.527 L 1661.9 970.086 L 1601.98 970.732 C 1593.45 970.814 1576.44 971.367 1568.55 970.623 C 1555.79 980.854 1547.16 986.931 1533.01 995.082 C 1504.29 1011.19 1470.54 1025.45 1440.06 1038.06 C 1430.34 1042.08 1415.76 1048.29 1406.02 1051.64 C 1402.78 1052.9 1394.64 1055.66 1392.51 1057.75 L 1395.33 1064.78 C 1379.65 1073.58 1358.69 1083.02 1342.2 1090.96 C 1287.64 1117.16 1232.13 1141.31 1175.77 1163.36 C 1072.9 1206.86 1021.33 1201.18 919.849 1160.21 C 906.444 1158.04 706.011 1065.88 700.425 1059.31 L 701.579 1053.81 C 700.106 1052.93 685.867 1047.5 683.331 1046.53 C 669.636 1041.3 656.476 1036.1 643.006 1030.3 C 601.977 1012.21 574.001 999.279 539.446 969.641 C 532.272 962.566 525.514 955.08 519.208 947.221 L 512.202 935.806 C 506.025 930.438 506.651 925.448 510.72 919.21 C 514.131 911.111 517.823 902.725 520.765 894.477 L 519.417 894.087 C 516.228 888.996 516.962 841.711 516.965 831.916 C 516.38 786.638 517.02 741.18 516.668 695.864 C 522.911 695.543 530.161 696.22 536.047 694.717 C 507.164 648.112 498.846 613.568 503.412 558.697 L 502.613 556.709 C 498.241 555.577 474.102 556.347 467.91 556.37 L 388.925 556.491 C 387.94 512.677 388.248 461.898 389.041 418.021 L 260.224 417.849 C 245.79 417.057 231.012 417.603 216.503 417.631 C 188.323 417.732 160.142 417.604 131.964 417.246 C 92.9294 419.42 40.0298 417.88 0 417.836 L 0 279.673 L 0 141.813 L 0 0 z"/>
<path transform="translate(0,0)" fill="rgb(92,137,77)" d="M 643.82 393.792 C 685.811 381.938 729.928 382.033 770.924 397.945 C 789.726 405.551 795.879 409.206 813.28 419.365 C 818.581 416.867 889.091 417.907 900.958 417.931 C 900.31 454.525 902.07 495.935 900.57 531.484 C 904.04 532.191 907.741 531.523 911.315 531.136 L 919.273 530.554 C 921.96 529.741 940.461 528.798 944.261 528.406 C 977.099 525.018 1012.77 525.835 1045.13 523.142 C 1081.5 523.207 1117.85 524.526 1154.13 527.097 C 1168.97 528.628 1189.61 530.738 1204.37 531.321 L 1207.78 532.145 C 1210.97 532.323 1214.13 532.468 1217.31 532.777 C 1216.69 543.159 1212.29 560.492 1209.89 571.267 C 1205.7 589.774 1201.68 608.32 1197.84 626.902 L 1160.71 802.151 C 1154.64 829.113 1148.82 856.131 1143.25 883.2 C 1140.82 894.581 1137.68 906.453 1135.66 917.795 L 1423.23 917.791 L 1507.98 917.715 C 1517.8 917.707 1543.58 917.12 1552.28 918.175 C 1569.13 918.346 1588.12 917.79 1604.69 918.344 C 1612.37 925.76 1611.7 934.436 1599.74 935.877 C 1592.5 948.586 1579.26 960.641 1568.55 970.623 C 1555.79 980.854 1547.16 986.931 1533.01 995.082 C 1504.29 1011.19 1470.54 1025.45 1440.06 1038.06 C 1430.34 1042.08 1415.76 1048.29 1406.02 1051.64 C 1402.78 1052.9 1394.64 1055.66 1392.51 1057.75 L 1395.33 1064.78 C 1379.65 1073.58 1358.69 1083.02 1342.2 1090.96 C 1287.64 1117.16 1232.13 1141.31 1175.77 1163.36 C 1072.9 1206.86 1021.33 1201.18 919.849 1160.21 C 906.444 1158.04 706.011 1065.88 700.425 1059.31 L 701.579 1053.81 C 700.106 1052.93 685.867 1047.5 683.331 1046.53 C 669.636 1041.3 656.476 1036.1 643.006 1030.3 C 601.977 1012.21 574.001 999.279 539.446 969.641 C 532.272 962.566 525.514 955.08 519.208 947.221 L 512.202 935.806 C 506.025 930.438 506.651 925.448 510.72 919.21 C 514.131 911.111 517.823 902.725 520.765 894.477 L 519.417 894.087 C 516.228 888.996 516.962 841.711 516.965 831.916 C 516.38 786.638 517.02 741.18 516.668 695.864 C 522.911 695.543 530.161 696.22 536.047 694.717 C 507.164 648.112 498.846 613.568 503.412 558.697 C 508.702 530.961 508.484 527.733 519.64 501.026 C 538.279 463.756 556.184 444.121 589.009 419.53 C 609.249 406.81 620.924 400.385 643.82 393.792 z"/>
<path transform="translate(0,0)" fill="rgb(117,169,95)" d="M 643.82 393.792 C 685.811 381.938 729.928 382.033 770.924 397.945 C 789.726 405.551 795.879 409.206 813.28 419.365 C 818.581 416.867 889.091 417.907 900.958 417.931 C 900.31 454.525 902.07 495.935 900.57 531.484 L 894.861 532.207 C 897.733 532.72 899.061 532.464 900.897 535.033 C 904.588 540.199 972.86 872.925 983.032 917.963 L 706.347 917.788 C 692.417 917.796 621.111 916.298 612.837 918.714 C 580.562 919.198 542.447 917.346 510.72 919.21 C 514.131 911.111 517.823 902.725 520.765 894.477 L 519.417 894.087 C 516.228 888.996 516.962 841.711 516.965 831.916 C 516.38 786.638 517.02 741.18 516.668 695.864 C 522.911 695.543 530.161 696.22 536.047 694.717 C 507.164 648.112 498.846 613.568 503.412 558.697 C 508.702 530.961 508.484 527.733 519.64 501.026 C 538.279 463.756 556.184 444.121 589.009 419.53 C 609.249 406.81 620.924 400.385 643.82 393.792 z"/>
<path transform="translate(0,0)" fill="rgb(231,231,231)" d="M 536.047 694.717 C 550.382 715.16 563.888 728.739 583.666 743.821 C 570.04 773.088 558.705 804.193 545.737 833.727 C 540.036 830.845 523.817 831.83 516.965 831.916 C 516.38 786.638 517.02 741.18 516.668 695.864 C 522.911 695.543 530.161 696.22 536.047 694.717 z"/>
<path transform="translate(0,0)" fill="rgb(254,254,254)" d="M 813.28 419.365 C 818.581 416.867 889.091 417.907 900.958 417.931 C 900.31 454.525 902.07 495.935 900.57 531.484 L 894.861 532.207 C 894.269 532.156 893.684 531.819 893.278 531.384 C 892.107 530.128 880.638 497.239 878.07 492.302 C 862.562 462.489 839.948 439.296 813.28 419.365 z"/>
<path transform="translate(0,0)" fill="rgb(254,254,254)" d="M 516.965 831.916 C 523.817 831.83 540.036 830.845 545.737 833.727 C 537.674 854.083 529.349 874.335 520.765 894.477 L 519.417 894.087 C 516.228 888.996 516.962 841.711 516.965 831.916 z"/>
<path transform="translate(0,0)" fill="rgb(254,254,254)" d="M 681.513 421.238 C 770.608 412.135 850.215 476.976 859.327 566.069 C 868.439 655.163 803.606 734.776 714.513 743.897 C 625.408 753.019 545.781 688.175 536.667 599.069 C 527.554 509.963 592.406 430.343 681.513 421.238 z"/>
<path transform="translate(0,0)" fill="rgb(0,0,0)" d="M 695.8 464.141 C 762.243 455.975 822.681 503.335 830.641 569.803 C 838.601 636.272 791.055 696.563 724.562 704.318 C 658.359 712.038 598.388 664.744 590.463 598.566 C 582.538 532.388 629.646 472.27 695.8 464.141 z"/>
<path transform="translate(0,0)" fill="rgb(254,254,254)" d="M 739.954 509.52 C 759.562 505.042 779.064 517.398 783.388 537.041 C 787.713 556.684 775.203 576.088 755.527 580.258 C 736.068 584.382 716.925 572.041 712.648 552.615 C 708.372 533.189 720.562 513.949 739.954 509.52 z"/>
<path transform="translate(0,0)" fill="rgb(254,254,254)" d="M 663.914 624.44 C 674.489 622.458 684.666 629.429 686.639 640.006 C 688.612 650.582 681.633 660.754 671.055 662.718 C 660.49 664.68 650.333 657.71 648.362 647.146 C 646.391 636.583 653.352 626.42 663.914 624.44 z"/>
<path transform="translate(0,0)" fill="rgb(231,143,143)" d="M 649.639 781.371 C 673.862 777.906 735.425 783.579 742.575 811.998 C 749.114 837.984 696.176 846.938 680.885 848.902 C 657.847 850.31 616.494 848.871 598.772 833.407 C 558.285 798.078 629.576 783.851 649.639 781.371 z"/>
<path transform="translate(0,0)" fill="rgb(154,189,118)" d="M 1045.13 523.142 C 1081.5 523.207 1117.85 524.526 1154.13 527.097 C 1168.97 528.628 1189.61 530.738 1204.37 531.321 C 1202.8 531.605 1201.13 532.008 1199.55 532.354 C 1197.58 534.169 1197.71 534.808 1197.13 537.455 C 1179.67 617.745 1162.94 698.26 1145.62 778.577 L 1126.21 867.781 C 1122.72 883.651 1118 902.313 1115.53 918.137 L 1002.61 918.065 C 1000.82 903.873 996.018 885.459 992.882 871.015 L 977.113 796.055 L 944.818 643.844 C 937.513 609.05 930.535 574.154 923.056 539.402 C 922.095 534.94 922.145 533.342 919.273 530.554 C 921.96 529.741 940.461 528.798 944.261 528.406 C 977.099 525.018 1012.77 525.835 1045.13 523.142 z"/>
<path transform="translate(0,0)" fill="rgb(43,50,42)" d="M 1017.12 782.562 C 1025.08 782.155 1031.93 788.15 1032.57 796.095 C 1033.21 804.04 1027.43 811.058 1019.51 811.939 C 1014.17 812.533 1008.93 810.175 1005.83 805.786 C 1002.73 801.396 1002.27 795.669 1004.62 790.838 C 1006.97 786.006 1011.76 782.836 1017.12 782.562 z"/>
<path transform="translate(0,0)" fill="rgb(43,50,42)" d="M 1093.25 783.608 C 1100.85 781.456 1108.76 785.801 1111.02 793.364 C 1113.29 800.927 1109.06 808.905 1101.53 811.275 C 1096.56 812.839 1091.13 811.606 1087.33 808.049 C 1083.52 804.491 1081.93 799.161 1083.16 794.099 C 1084.38 789.038 1088.24 785.029 1093.25 783.608 z"/>
<path transform="translate(0,0)" fill="rgb(117,169,95)" d="M 1476.06 935.838 C 1515.61 935.508 1560.37 934.771 1599.74 935.877 C 1592.5 948.586 1579.26 960.641 1568.55 970.623 C 1555.79 980.854 1547.16 986.931 1533.01 995.082 C 1504.29 1011.19 1470.54 1025.45 1440.06 1038.06 C 1430.34 1042.08 1415.76 1048.29 1406.02 1051.64 C 1402.78 1052.9 1394.64 1055.66 1392.51 1057.75 C 1385.06 1058.24 1333.16 1079.41 1322.07 1083.43 C 1268.21 1103.12 1213.85 1121.41 1159.04 1138.27 C 1127.3 1147.86 1089.9 1159.42 1056.81 1162.52 L 1054.5 1162.31 C 1052 1158.47 1053.66 1114.43 1053.6 1105.45 L 1052.69 936.226 L 1334.21 936.229 L 1424.8 936.271 C 1440.19 936.282 1460.99 936.88 1476.06 935.838 z"/>
<path transform="translate(0,0)" fill="rgb(43,50,42)" d="M 911.315 531.136 L 919.273 530.554 C 922.145 533.342 922.095 534.94 923.056 539.402 C 930.535 574.154 937.513 609.05 944.818 643.844 L 977.113 796.055 L 992.882 871.015 C 996.018 885.459 1000.82 903.873 1002.61 918.065 L 1115.53 918.137 C 1118 902.313 1122.72 883.651 1126.21 867.781 L 1145.62 778.577 C 1162.94 698.26 1179.67 617.745 1197.13 537.455 C 1197.71 534.808 1197.58 534.169 1199.55 532.354 C 1201.13 532.008 1202.8 531.605 1204.37 531.321 L 1207.78 532.145 C 1210.97 532.323 1214.13 532.468 1217.31 532.777 C 1216.69 543.159 1212.29 560.492 1209.89 571.267 C 1205.7 589.774 1201.68 608.32 1197.84 626.902 L 1160.71 802.151 C 1154.64 829.113 1148.82 856.131 1143.25 883.2 C 1140.82 894.581 1137.68 906.453 1135.66 917.795 L 1423.23 917.791 L 1507.98 917.715 C 1517.8 917.707 1543.58 917.12 1552.28 918.175 C 1569.13 918.346 1588.12 917.79 1604.69 918.344 C 1612.37 925.76 1611.7 934.436 1599.74 935.877 C 1560.37 934.771 1515.61 935.508 1476.06 935.838 C 1466.76 934.913 1451.59 935.337 1441.86 935.334 L 1383.86 935.292 L 1190.58 935.263 L 512.202 935.806 C 506.025 930.438 506.651 925.448 510.72 919.21 C 542.447 917.346 580.562 919.198 612.837 918.714 C 621.111 916.298 692.417 917.796 706.347 917.788 L 983.032 917.963 C 972.86 872.925 904.588 540.199 900.897 535.033 C 899.061 532.464 897.733 532.72 894.861 532.207 L 900.57 531.484 C 904.04 532.191 907.741 531.523 911.315 531.136 z"/>
<path transform="translate(0,0)" fill="rgb(92,137,77)" d="M 911.315 531.136 L 919.273 530.554 C 922.145 533.342 922.095 534.94 923.056 539.402 C 930.535 574.154 937.513 609.05 944.818 643.844 L 977.113 796.055 L 992.882 871.015 C 996.018 885.459 1000.82 903.873 1002.61 918.065 L 1115.53 918.137 C 1118 902.313 1122.72 883.651 1126.21 867.781 L 1145.62 778.577 C 1162.94 698.26 1179.67 617.745 1197.13 537.455 C 1197.71 534.808 1197.58 534.169 1199.55 532.354 C 1201.13 532.008 1202.8 531.605 1204.37 531.321 L 1207.78 532.145 C 1210.97 532.323 1214.13 532.468 1217.31 532.777 C 1216.69 543.159 1212.29 560.492 1209.89 571.267 C 1205.7 589.774 1201.68 608.32 1197.84 626.902 L 1160.71 802.151 C 1154.64 829.113 1148.82 856.131 1143.25 883.2 C 1140.82 894.581 1137.68 906.453 1135.66 917.795 L 1423.23 917.791 L 1507.98 917.715 C 1517.8 917.707 1543.58 917.12 1552.28 918.175 C 1534.45 919.181 1511.82 918.54 1493.65 918.578 L 1386.84 918.813 L 1056.25 919.021 L 766.774 918.776 L 664.772 918.876 C 649.223 918.882 627.885 919.572 612.837 918.714 C 621.111 916.298 692.417 917.796 706.347 917.788 L 983.032 917.963 C 972.86 872.925 904.588 540.199 900.897 535.033 C 899.061 532.464 897.733 532.72 894.861 532.207 L 900.57 531.484 C 904.04 532.191 907.741 531.523 911.315 531.136 z"/>
<path transform="translate(0,0)" fill="rgb(154,189,118)" d="M 900.57 531.484 C 904.04 532.191 907.741 531.523 911.315 531.136 C 928.076 600.549 941.707 676.298 956.626 746.569 L 981.678 863.123 C 983.049 869.629 992.954 913.402 991.971 917.363 C 989.372 918.849 986.207 918.167 983.032 917.963 C 972.86 872.925 904.588 540.199 900.897 535.033 C 899.061 532.464 897.733 532.72 894.861 532.207 L 900.57 531.484 z"/>
<path transform="translate(0,0)" fill="rgb(154,189,118)" d="M 1207.78 532.145 C 1210.97 532.323 1214.13 532.468 1217.31 532.777 C 1216.69 543.159 1212.29 560.492 1209.89 571.267 C 1205.7 589.774 1201.68 608.32 1197.84 626.902 L 1160.71 802.151 C 1154.64 829.113 1148.82 856.131 1143.25 883.2 C 1140.82 894.581 1137.68 906.453 1135.66 917.795 C 1132.57 918.002 1128.54 918.759 1126.17 917.186 C 1125.42 913.581 1140.29 849.453 1142.51 839.174 L 1187.53 627.451 C 1193.86 597.308 1202.85 561.609 1207.78 532.145 z"/>
<path transform="translate(0,0)" fill="rgb(96,103,103)" d="M 701.579 1053.81 C 710.813 1054.91 750.539 1072.36 762.935 1076.82 C 815.846 1096.19 869.138 1114.49 922.778 1131.73 C 946.614 1139.3 1036.47 1167.02 1056.81 1162.52 C 1089.9 1159.42 1127.3 1147.86 1159.04 1138.27 C 1213.85 1121.41 1268.21 1103.12 1322.07 1083.43 C 1333.16 1079.41 1385.06 1058.24 1392.51 1057.75 L 1395.33 1064.78 C 1379.65 1073.58 1358.69 1083.02 1342.2 1090.96 C 1287.64 1117.16 1232.13 1141.31 1175.77 1163.36 C 1072.9 1206.86 1021.33 1201.18 919.849 1160.21 C 906.444 1158.04 706.011 1065.88 700.425 1059.31 L 701.579 1053.81 z"/>
<path transform="translate(0,0)" fill="rgb(117,169,95)" d="M 1314.2 419.377 C 1363.35 391.195 1414.75 381.25 1470.27 396.295 C 1521.53 410.007 1565.1 443.801 1591.13 490.038 C 1603.64 512.266 1609.95 531.66 1614.57 556.46 C 1623.87 633.241 1596.74 701.039 1534.35 747.397 C 1544.37 769.479 1560.8 809.421 1569.06 832.384 C 1580.6 860.574 1592.28 890.653 1604.69 918.344 C 1588.12 917.79 1569.13 918.346 1552.28 918.175 C 1543.58 917.12 1517.8 917.707 1507.98 917.715 L 1423.23 917.791 L 1135.66 917.795 C 1137.68 906.453 1140.82 894.581 1143.25 883.2 C 1148.82 856.131 1154.64 829.113 1160.71 802.151 L 1197.84 626.902 C 1201.68 608.32 1205.7 589.774 1209.89 571.267 C 1212.29 560.492 1216.69 543.159 1217.31 532.777 C 1218.31 532.928 1226.97 534.289 1227.35 533.085 C 1238.67 496.577 1254.78 472.448 1281.25 444.859 C 1292.74 434.458 1301.64 428.033 1314.2 419.377 z"/>
<path transform="translate(0,0)" fill="rgb(254,254,254)" d="M 1412.78 421.919 C 1502.53 417.417 1578.9 486.608 1583.26 576.367 C 1587.61 666.127 1518.29 742.383 1428.53 746.588 C 1338.97 750.783 1262.93 681.664 1258.59 592.113 C 1254.24 502.563 1323.24 426.41 1412.78 421.919 z"/>
<path transform="translate(0,0)" fill="rgb(0,0,0)" d="M 1391.62 465.111 C 1458.01 456.213 1519 502.942 1527.68 569.36 C 1536.36 635.778 1489.43 696.612 1422.99 705.075 C 1356.85 713.499 1296.36 666.835 1287.72 600.723 C 1279.07 534.612 1325.54 473.969 1391.62 465.111 z"/>
<path transform="translate(0,0)" fill="rgb(254,254,254)" d="M 1438.3 509.642 C 1457.73 506.123 1476.39 518.811 1480.26 538.168 C 1484.13 557.525 1471.78 576.414 1452.5 580.635 C 1439.71 583.434 1426.41 579.111 1417.71 569.33 C 1409.01 559.549 1406.26 545.832 1410.53 533.457 C 1414.81 521.082 1425.42 511.976 1438.3 509.642 z"/>
<path transform="translate(0,0)" fill="rgb(254,254,254)" d="M 1359.06 625.549 C 1369.5 622.85 1380.14 629.163 1382.77 639.615 C 1385.4 650.068 1379.02 660.664 1368.55 663.227 C 1358.17 665.765 1347.69 659.455 1345.09 649.098 C 1342.48 638.742 1348.72 628.223 1359.06 625.549 z"/>
<path transform="translate(0,0)" fill="rgb(231,143,143)" d="M 1430 788.391 C 1450.87 786.63 1519.56 788.854 1525.7 819.769 C 1530.22 842.532 1485.88 854.536 1467.24 855.875 C 1439.29 858.718 1403.56 856.291 1380.04 839.707 C 1360.96 826.248 1367.64 808.713 1386.39 799.994 C 1401.83 792.811 1413.25 790.24 1430 788.391 z"/>
<path transform="translate(0,0)" fill="rgb(254,254,254)" d="M 1661.23 417.798 C 1701.44 418.836 1749.73 418.511 1790.11 417.825 C 1789.82 464.013 1789.79 510.201 1790.02 556.389 C 1832.98 556.573 1875.93 556.462 1918.89 556.057 L 1918.39 417.96 L 2048 417.948 L 2048 695.107 L 1918 694.961 L 1918.05 831.685 C 1890.05 831.972 1862.04 832.078 1834.03 832.001 C 1820.81 832.001 1802.95 831.477 1790.06 832.14 C 1755.28 834.143 1697.22 833.414 1661.67 832.527 L 1661.9 970.086 L 1601.98 970.732 C 1593.45 970.814 1576.44 971.367 1568.55 970.623 C 1579.26 960.641 1592.5 948.586 1599.74 935.877 C 1611.7 934.436 1612.37 925.76 1604.69 918.344 C 1592.28 890.653 1580.6 860.574 1569.06 832.384 C 1560.8 809.421 1544.37 769.479 1534.35 747.397 C 1596.74 701.039 1623.87 633.241 1614.57 556.46 L 1661.99 556.381 C 1661.28 511.176 1663.24 462.57 1661.23 417.798 z"/>
<path transform="translate(0,0)" fill="rgb(231,231,231)" d="M 1660.99 695.043 C 1703.85 695.515 1747.35 695 1790.26 694.938 C 1790.36 741.035 1790.9 785.972 1790.06 832.14 C 1755.28 834.143 1697.22 833.414 1661.67 832.527 L 1661.9 970.086 L 1601.98 970.732 C 1593.45 970.814 1576.44 971.367 1568.55 970.623 C 1579.26 960.641 1592.5 948.586 1599.74 935.877 C 1611.7 934.436 1612.37 925.76 1604.69 918.344 C 1592.28 890.653 1580.6 860.574 1569.06 832.384 C 1599.74 831.898 1630.42 831.75 1661.11 831.94 L 1660.99 695.043 z"/>
<path transform="translate(0,0)" fill="rgb(254,254,254)" d="M 1154.51 0 L 1660.74 0 C 1661.65 46.3468 1660.37 94.1343 1661.03 140.993 L 1532.06 141.104 L 1532.08 279.562 L 1406.85 279.724 C 1405.5 234.875 1406.95 187.021 1406.07 141.374 C 1384.53 141.9 1359.86 141.099 1337.95 141.139 L 1154.55 141.192 C 1154.73 135.379 1154.71 129.654 1154.65 123.843 C 1154.19 82.5436 1154.87 41.3063 1154.51 0 z"/>
<path transform="translate(0,0)" fill="rgb(254,254,254)" d="M 1029.04 280.163 C 1028.7 307.756 1028.68 335.351 1028.98 362.944 C 1029.01 380.434 1028.46 400.528 1029.02 417.806 L 1029.03 481.446 C 1029.04 494.073 1028.71 510.385 1029.73 522.788 C 1034.45 522.779 1040.55 522.557 1045.13 523.142 C 1012.77 525.835 977.099 525.018 944.261 528.406 C 940.461 528.798 921.96 529.741 919.273 530.554 L 911.315 531.136 C 907.741 531.523 904.04 532.191 900.57 531.484 C 902.07 495.935 900.31 454.525 900.958 417.931 L 901.144 280.322 C 921.209 281.332 944.74 280.812 964.999 280.818 C 985.165 280.824 1009.12 281.359 1029.04 280.163 z"/>
<path transform="translate(0,0)" fill="rgb(231,231,231)" d="M 900.958 417.931 C 941.083 417.869 989.437 416.417 1029.02 417.806 L 1029.03 481.446 C 1029.04 494.073 1028.71 510.385 1029.73 522.788 C 1034.45 522.779 1040.55 522.557 1045.13 523.142 C 1012.77 525.835 977.099 525.018 944.261 528.406 C 940.461 528.798 921.96 529.741 919.273 530.554 L 911.315 531.136 C 907.741 531.523 904.04 532.191 900.57 531.484 C 902.07 495.935 900.31 454.525 900.958 417.931 z"/>
<path transform="translate(0,0)" fill="rgb(231,231,231)" d="M 0 0 L 132.012 0 C 131.951 46.5291 132.618 94.6817 131.913 141.044 C 118.566 142.437 97.2617 141.859 83.2992 141.858 L 0 141.813 L 0 0 z"/>
<path transform="translate(0,0)" fill="rgb(254,254,254)" d="M 131.913 141.044 C 130.982 186.793 131.742 234.038 131.633 279.941 C 93.7876 278.246 37.9907 278.834 0 279.673 L 0 141.813 L 83.2992 141.858 C 97.2617 141.859 118.566 142.437 131.913 141.044 z"/>
<path transform="translate(0,0)" fill="rgb(254,254,254)" d="M 642.449 0 L 770.934 0 L 771.03 141.135 C 730.534 139.866 683.303 141.039 642.294 140.931 L 642.449 0 z"/>
<path transform="translate(0,0)" fill="rgb(254,254,254)" d="M 901.193 0 L 1028.98 0 C 1029.69 46.6548 1028.77 94.188 1029.01 141.012 L 901.018 141.122 L 901.193 0 z"/>
<path transform="translate(0,0)" fill="rgb(254,254,254)" d="M 132.012 0 L 260.032 0 L 260.082 141.092 C 219.276 141.118 172.271 139.908 131.913 141.044 C 132.618 94.6817 131.951 46.5291 132.012 0 z"/>
<path transform="translate(0,0)" fill="rgb(254,254,254)" d="M 1790.06 0 L 1917.99 0 L 1918.06 140.978 C 1875.53 141.238 1833.01 141.215 1790.49 140.909 C 1790.72 93.939 1790.58 46.9678 1790.06 1.42109e-14 z"/>
<path transform="translate(0,0)" fill="rgb(254,254,254)" d="M 389.947 0 L 516.904 0 L 516.982 141.049 L 389.476 141.031 C 388.622 95.1881 389.872 46.313 389.947 0 z"/>
<path transform="translate(0,0)" fill="rgb(254,254,254)" d="M 1918.5 141.928 L 2048 142.002 L 2048 278.973 C 2007.06 280.496 1960.06 279.149 1918.57 279.229 C 1919.74 234.929 1918.76 186.528 1918.5 141.928 z"/>
<path transform="translate(0,0)" fill="rgb(254,254,254)" d="M 1532.67 280.272 C 1568.2 281.372 1604.14 280.177 1639.72 280.603 C 1646.82 280.688 1654.01 280.528 1661.11 280.148 L 1660.88 368.269 C 1660.84 382.926 1660.22 403.684 1661.23 417.798 C 1652.98 417.005 1643.68 417.25 1635.35 417.434 C 1601.24 418.19 1567.02 417.031 1532.93 417.837 C 1532.92 373.027 1533.75 324.771 1532.67 280.272 z"/>
<path transform="translate(0,0)" fill="rgb(254,254,254)" d="M 131.935 280.111 C 168.808 281.388 222.993 281.25 260.008 280.001 C 259.835 324.23 258.609 373.958 260.224 417.849 C 245.79 417.057 231.012 417.603 216.503 417.631 C 188.323 417.732 160.142 417.604 131.964 417.246 L 131.935 280.111 z"/>
<path transform="translate(0,0)" fill="rgb(254,254,254)" d="M 1029.3 142.009 C 1043.54 142.015 1152.44 141.118 1154.71 142.658 C 1154.22 188.386 1154.02 234.117 1154.13 279.848 C 1127.17 278.946 1098.84 279.559 1071.76 279.454 C 1061.56 279.414 1038.36 278.975 1029.04 280.163 C 1030.51 235.706 1028.86 187.115 1029.3 142.009 z"/>
<path transform="translate(0,0)" fill="rgb(254,254,254)" d="M 517.033 141.936 C 558.296 141.977 600.824 142.543 641.989 141.727 C 641.723 187.855 641.728 233.984 642.006 280.112 C 622.734 279.017 602.252 279.51 582.84 279.443 C 560.909 279.367 538.91 279.061 516.998 279.314 L 517.033 141.936 z"/>
<path transform="translate(0,0)" fill="rgb(254,254,254)" d="M 1154.41 280.359 C 1193.88 281.694 1238.89 280.741 1278.66 280.485 C 1278.74 325.216 1277.96 372.824 1278.92 417.301 C 1237.65 417.007 1195.84 418.164 1154.63 417.588 C 1154.84 388.625 1154.9 359.662 1154.79 330.699 C 1154.77 315.219 1155.31 295.465 1154.41 280.359 z"/>
<path transform="translate(0,0)" fill="rgb(254,254,254)" d="M 642.006 280.112 C 657.876 281.146 678.303 280.557 694.585 280.527 C 720.068 280.621 745.551 280.441 771.029 279.986 C 770.747 317.767 770.093 360.311 770.924 397.945 C 729.928 382.033 685.811 381.938 643.82 393.792 C 641.306 388.539 642.117 293.035 642.006 280.112 z"/>
<path transform="translate(0,0)" fill="rgb(254,254,254)" d="M 1029.02 417.806 C 1052.82 418.335 1077.45 418.006 1101.3 417.988 C 1118.23 417.974 1137.87 418.423 1154.63 417.588 C 1153.13 454.122 1155.91 491.47 1154.13 527.097 C 1117.85 524.526 1081.5 523.207 1045.13 523.142 C 1040.55 522.557 1034.45 522.779 1029.73 522.788 C 1028.71 510.385 1029.04 494.073 1029.03 481.446 L 1029.02 417.806 z"/>
<path transform="translate(0,0)" fill="rgb(254,254,254)" d="M 517.012 417.978 C 528.22 418.075 582.382 416.53 589.009 419.53 C 556.184 444.121 538.279 463.756 519.64 501.026 C 515.392 492.617 516.961 432.06 517.012 417.978 z"/>
<path transform="translate(0,0)" fill="rgb(254,254,254)" d="M 1279.01 417.914 C 1287.02 417.927 1308.51 416.45 1314.2 419.377 C 1301.64 428.033 1292.74 434.458 1281.25 444.859 C 1278.08 438.928 1278.98 425.299 1279.01 417.914 z"/>
<path transform="translate(0,0)" fill="rgb(254,254,254)" d="M 770.992 142.022 L 900.836 141.861 L 900.592 279.309 C 858.029 279.971 813.824 279.301 771.086 279.346 L 770.992 142.022 z"/>
<path transform="translate(0,0)" fill="rgb(254,254,254)" d="M 1661.69 141.975 C 1702.23 141.996 1750.41 143.281 1790.05 141.696 L 1789.96 232.207 C 1789.96 246.857 1789.45 265.667 1790.13 280.036 C 1750 278.671 1702.15 279.295 1661.81 279.643 L 1661.69 141.975 z"/>
<path transform="translate(0,0)" fill="rgb(254,254,254)" d="M 260.366 141.848 L 388.99 141.855 C 388.413 187.498 389.131 233.595 388.802 279.352 C 347.961 278.201 301.559 279.312 260.315 279.146 C 259.473 234.015 261.601 187.569 260.366 141.848 z"/>
<path transform="translate(0,0)" fill="rgb(254,254,254)" d="M 388.994 279.987 C 408.166 281.19 429.775 280.673 449.203 280.549 C 471.209 280.41 495.065 280.985 516.877 279.951 C 516.561 325.711 516.572 371.472 516.91 417.231 C 474.294 417.708 431.674 417.727 389.057 417.291 C 389.723 372.166 389.159 325.194 388.994 279.987 z"/>
<path transform="translate(0,0)" fill="rgb(254,254,254)" d="M 1790.13 280.036 C 1800.63 280.887 1812.09 280.902 1822.62 280.733 C 1854.19 280.228 1886.53 281.546 1918.03 280.313 L 1918.02 417.091 C 1875.56 417.879 1833.09 417.978 1790.63 417.389 C 1790.68 373.923 1791.92 322.983 1790.13 280.036 z"/>
<path transform="translate(0,0)" fill="rgb(254,254,254)" d="M 1918 694.961 L 2048 695.107 L 2048 832.213 L 2048 1630.71 L 2048 1769.54 L 2048 1907.56 L 2048 2048 L 1918.04 2048 L 1790.31 2048 L 1660.69 2048 L 1532.3 2048 L 1278.54 2048 L 1154.22 2048 L 1028.99 2048 L 900.989 2048 L 900.993 1908.22 C 899.565 1864.07 900.683 1813.51 900.936 1769.12 C 901.722 1736.75 900.605 1703.92 901.26 1671.51 C 901.527 1658.31 901.597 1644.28 900.97 1631.12 C 923.401 1632.59 949.714 1631.85 972.502 1631.66 C 990.48 1631.52 1011.48 1631.9 1029.13 1631.03 L 1029.21 1592.93 C 1044.35 1593.1 1071.2 1593.96 1085.37 1592.11 C 1107.93 1592.01 1131.63 1589.92 1154.03 1587.48 C 1196.09 1583.65 1237.7 1575.91 1278.32 1564.36 C 1286.45 1561.57 1291.29 1560.13 1299.65 1558.28 L 1300.68 1552.52 L 1304.56 1550.96 C 1305.28 1541.42 1311.92 1513.09 1313.98 1502.83 C 1317.43 1485.68 1320.36 1468.91 1323.36 1451.61 C 1326.38 1434.16 1332.34 1413.7 1334.29 1396.17 C 1334.92 1389.34 1335.36 1385.88 1337.62 1379.42 C 1345.38 1378.63 1367.88 1379.06 1378.16 1378.47 C 1383.55 1380.5 1389.48 1380.55 1394.91 1378.63 C 1412.74 1379.22 1431.25 1378.9 1449.14 1378.82 C 1451.02 1375.35 1453.65 1362.86 1454.64 1358.59 C 1456.48 1336.1 1465.77 1311.22 1463.1 1288.66 C 1461.84 1278.04 1455.11 1265.72 1453.34 1254.3 L 1442.42 1218.34 C 1431.98 1181.43 1419.27 1143.8 1408.31 1106.75 C 1406.57 1102.1 1405.58 1098.78 1404.27 1093.97 C 1400.91 1084.52 1398.14 1074.44 1395.33 1064.78 L 1392.51 1057.75 C 1394.64 1055.66 1402.78 1052.9 1406.02 1051.64 C 1415.76 1048.29 1430.34 1042.08 1440.06 1038.06 C 1470.54 1025.45 1504.29 1011.19 1533.01 995.082 C 1547.16 986.931 1555.79 980.854 1568.55 970.623 C 1576.44 971.367 1593.45 970.814 1601.98 970.732 L 1661.9 970.086 L 1661.67 832.527 C 1697.22 833.414 1755.28 834.143 1790.06 832.14 C 1802.95 831.477 1820.81 832.001 1834.03 832.001 C 1862.04 832.078 1890.05 831.972 1918.05 831.685 L 1918 694.961 z"/>
<path transform="translate(0,0)" fill="rgb(231,231,231)" d="M 1561.9 1517.97 C 1571.98 1522.39 1633.1 1529.52 1647.49 1531.35 C 1635.7 1544.14 1633.08 1562.91 1640.91 1578.45 C 1645.56 1587.66 1653.46 1594.83 1663.09 1598.56 C 1660.85 1603.42 1661.1 1623.6 1660.91 1630.3 C 1698.19 1631.52 1735.76 1630.33 1773.08 1630.76 C 1778.56 1630.82 1784.65 1630.4 1790.03 1630.83 C 1790.77 1674.54 1791.23 1725.73 1790.17 1769.12 C 1789.81 1815.45 1789.8 1861.79 1790.15 1908.11 C 1790.58 1954.74 1790.64 2001.37 1790.31 2048 L 1660.69 2048 L 1532.3 2048 L 1278.54 2048 L 1154.22 2048 L 1028.99 2048 L 900.989 2048 L 900.993 1908.22 C 899.565 1864.07 900.683 1813.51 900.936 1769.12 C 901.722 1736.75 900.605 1703.92 901.26 1671.51 C 901.527 1658.31 901.597 1644.28 900.97 1631.12 C 923.401 1632.59 949.714 1631.85 972.502 1631.66 C 990.48 1631.52 1011.48 1631.9 1029.13 1631.03 L 1029.21 1592.93 C 1044.35 1593.1 1071.2 1593.96 1085.37 1592.11 C 1107.93 1592.01 1131.63 1589.92 1154.03 1587.48 C 1196.09 1583.65 1237.7 1575.91 1278.32 1564.36 C 1286.45 1561.57 1291.29 1560.13 1299.65 1558.28 L 1297.41 1565.1 C 1305.97 1570.06 1421 1566.7 1436.25 1564.52 C 1438.96 1564.27 1438.08 1564.39 1440.68 1563.27 C 1444.72 1557.88 1443.52 1551.33 1443.26 1544.51 C 1475.13 1541.46 1507.54 1535.51 1539.55 1532.62 C 1549.38 1531.73 1555.58 1525.7 1561.23 1518.02 L 1561.9 1517.97 z"/>
<path transform="translate(0,0)" fill="rgb(117,169,95)" d="M 1278.32 1564.36 C 1286.45 1561.57 1291.29 1560.13 1299.65 1558.28 L 1297.41 1565.1 C 1305.97 1570.06 1421 1566.7 1436.25 1564.52 C 1443.56 1568.96 1451.25 1591.85 1458.98 1594.25 C 1458.31 1598.18 1461.32 1601.48 1463.95 1605.23 C 1466.73 1609.13 1469.53 1613.02 1472.37 1616.89 C 1488.84 1615.41 1497.56 1619.81 1509.15 1631.38 C 1515.13 1640.91 1518.29 1651.12 1516.78 1662.45 C 1515.38 1672.87 1509.7 1682.24 1501.11 1688.3 C 1491.86 1694.98 1480.29 1697.61 1469.06 1695.6 C 1445.58 1691.25 1433.75 1670.15 1438.7 1647.43 C 1432.91 1641.37 1427.29 1635.15 1421.82 1628.8 C 1417.98 1630.82 1409.89 1630.19 1405.56 1629.81 L 1405.36 1630.75 C 1400.53 1631.18 1401.24 1630.34 1398.48 1632.97 C 1397.47 1638.26 1398.77 1640.11 1397.55 1645.12 L 1404.82 1652.77 C 1415.33 1671.04 1416.05 1683.87 1404.67 1702.02 C 1404.11 1702.65 1403.54 1703.28 1402.96 1703.9 C 1395.18 1712.14 1385.14 1717.11 1373.68 1717.19 C 1363.01 1717.2 1352.8 1712.79 1345.5 1705 C 1338.17 1697.29 1334.26 1686.95 1334.64 1676.31 C 1335.09 1662.62 1341.01 1654.28 1350.27 1645.28 C 1349.4 1639.91 1349.24 1635.53 1348.97 1630.15 C 1340 1631.66 1323.33 1631.89 1314.38 1631.29 C 1306.55 1636.5 1298 1641.95 1290.36 1647.33 C 1289.14 1672.97 1273.79 1692.06 1246.45 1689.74 C 1235.66 1688.81 1225.7 1683.61 1218.75 1675.31 C 1208.1 1662.51 1207.99 1646.97 1213.74 1632 C 1224.45 1614.31 1238.38 1607.14 1258.92 1611.22 C 1266.22 1602.02 1273.81 1592.86 1281.22 1583.74 L 1279.95 1582.84 C 1278.68 1579.39 1278.52 1568.68 1278.32 1564.36 z"/>
<path transform="translate(0,0)" fill="rgb(210,219,210)" d="M 1314.38 1631.29 C 1325.6 1623.17 1336.93 1615.21 1348.39 1607.42 C 1348.65 1614.76 1349.1 1622.88 1348.97 1630.15 C 1340 1631.66 1323.33 1631.89 1314.38 1631.29 z"/>
<path transform="translate(0,0)" fill="rgb(254,254,254)" d="M 1278.32 1564.36 C 1286.45 1561.57 1291.29 1560.13 1299.65 1558.28 L 1297.41 1565.1 C 1292.18 1571.18 1286.64 1577.91 1281.22 1583.74 L 1279.95 1582.84 C 1278.68 1579.39 1278.52 1568.68 1278.32 1564.36 z"/>
<path transform="translate(0,0)" fill="rgb(210,219,210)" d="M 1398.14 1600.45 C 1401.28 1604.02 1404.12 1607.51 1407.1 1611.19 C 1404.48 1615.24 1405.9 1624.13 1405.56 1629.81 L 1405.36 1630.75 C 1400.53 1631.18 1401.24 1630.34 1398.48 1632.97 C 1397.47 1638.26 1398.77 1640.11 1397.55 1645.12 C 1396.01 1639.84 1397.82 1607.22 1398.14 1600.45 z"/>
<path transform="translate(0,0)" fill="rgb(254,254,254)" d="M 1405.56 1629.81 C 1405.9 1624.13 1404.48 1615.24 1407.1 1611.19 C 1412.13 1617.06 1417.02 1622.74 1421.82 1628.8 C 1417.98 1630.82 1409.89 1630.19 1405.56 1629.81 z"/>
<path transform="translate(0,0)" fill="rgb(254,254,254)" d="M 1314.38 1631.29 C 1323.33 1631.89 1340 1631.66 1348.97 1630.15 C 1349.24 1635.53 1349.4 1639.91 1350.27 1645.28 C 1341.01 1654.28 1335.09 1662.62 1334.64 1676.31 C 1334.26 1686.95 1338.17 1697.29 1345.5 1705 C 1352.8 1712.79 1363.01 1717.2 1373.68 1717.19 C 1385.14 1717.11 1395.18 1712.14 1402.96 1703.9 C 1403.54 1703.28 1404.11 1702.65 1404.67 1702.02 C 1407.23 1706.7 1406.09 1760.03 1406.06 1769 L 1154.69 1768.93 C 1155.23 1724.31 1154.86 1676.04 1154.21 1631.35 C 1163.13 1631.45 1207.74 1630.27 1213.74 1632 C 1207.99 1646.97 1208.1 1662.51 1218.75 1675.31 C 1225.7 1683.61 1235.66 1688.81 1246.45 1689.74 C 1273.79 1692.06 1289.14 1672.97 1290.36 1647.33 C 1298 1641.95 1306.55 1636.5 1314.38 1631.29 z"/>
<path transform="translate(0,0)" fill="rgb(68,103,56)" d="M 1561.9 1517.97 C 1571.98 1522.39 1633.1 1529.52 1647.49 1531.35 C 1635.7 1544.14 1633.08 1562.91 1640.91 1578.45 C 1632.39 1578.27 1624.66 1577.38 1616.21 1576.49 L 1615.93 1578.06 C 1631.62 1594.75 1634.16 1610.25 1623.77 1630.99 C 1621.32 1634.37 1619.08 1637.07 1615.88 1639.83 C 1606.66 1647.73 1594.55 1651.41 1582.49 1650 C 1568.76 1648.31 1560.04 1641.61 1551.97 1631.13 C 1550.43 1627.22 1549.45 1622.78 1546.7 1619.77 C 1541.62 1618.12 1535.97 1616.64 1530.8 1615.18 C 1531.06 1620.38 1531.2 1625.86 1531.92 1631 L 1509.15 1631.38 C 1497.56 1619.81 1488.84 1615.41 1472.37 1616.89 C 1469.53 1613.02 1466.73 1609.13 1463.95 1605.23 C 1461.32 1601.48 1458.31 1598.18 1458.98 1594.25 C 1451.25 1591.85 1443.56 1568.96 1436.25 1564.52 C 1438.96 1564.27 1438.08 1564.39 1440.68 1563.27 C 1444.72 1557.88 1443.52 1551.33 1443.26 1544.51 C 1475.13 1541.46 1507.54 1535.51 1539.55 1532.62 C 1549.38 1531.73 1555.58 1525.7 1561.23 1518.02 L 1561.9 1517.97 z"/>
<path transform="translate(0,0)" fill="rgb(92,137,77)" d="M 1546.7 1619.77 C 1546.16 1610.98 1546.34 1603.03 1549.57 1594.65 C 1553.53 1584.51 1561.44 1576.41 1571.48 1572.21 C 1588.22 1565.1 1600.78 1570.39 1616.21 1576.49 L 1615.93 1578.06 C 1631.62 1594.75 1634.16 1610.25 1623.77 1630.99 C 1621.32 1634.37 1619.08 1637.07 1615.88 1639.83 C 1606.66 1647.73 1594.55 1651.41 1582.49 1650 C 1568.76 1648.31 1560.04 1641.61 1551.97 1631.13 C 1550.43 1627.22 1549.45 1622.78 1546.7 1619.77 z"/>
<path transform="translate(0,0)" fill="rgb(254,254,254)" d="M 1458.98 1594.25 C 1482.88 1601.37 1506.82 1608.34 1530.8 1615.18 C 1531.06 1620.38 1531.2 1625.86 1531.92 1631 L 1509.15 1631.38 C 1497.56 1619.81 1488.84 1615.41 1472.37 1616.89 C 1469.53 1613.02 1466.73 1609.13 1463.95 1605.23 C 1461.32 1601.48 1458.31 1598.18 1458.98 1594.25 z"/>
<path transform="translate(0,0)" fill="rgb(231,231,231)" d="M 900.936 1769.12 L 982.953 1768.95 C 997.135 1768.94 1015.14 1768.43 1029.08 1769.18 C 1029.34 1801.11 1029.39 1833.05 1029.22 1864.98 C 1029.16 1878.43 1029.69 1895.02 1029.04 1908.08 C 1013.48 1909.56 989.17 1908.45 973.01 1908.6 C 949.655 1908.81 924.227 1909.41 900.993 1908.22 C 899.565 1864.07 900.683 1813.51 900.936 1769.12 z"/>
<path transform="translate(0,0)" fill="rgb(254,254,254)" d="M 1532.17 1907.82 C 1542.22 1909.18 1569.89 1908.77 1581.01 1908.7 C 1606.99 1908.55 1635.26 1909.47 1661.07 1908.41 L 1660.69 2048 L 1532.3 2048 C 1532.88 2003.03 1533.67 1952.72 1532.17 1907.82 z"/>
<path transform="translate(0,0)" fill="rgb(254,254,254)" d="M 1029.04 1908.08 L 1028.99 2048 L 900.989 2048 L 900.993 1908.22 C 924.227 1909.41 949.655 1908.81 973.01 1908.6 C 989.17 1908.45 1013.48 1909.56 1029.04 1908.08 z"/>
<path transform="translate(0,0)" fill="rgb(254,254,254)" d="M 1790.17 1769.12 C 1789.81 1815.45 1789.8 1861.79 1790.15 1908.11 C 1751.2 1906.24 1701.49 1907.68 1661.52 1907.88 L 1661.36 1769.84 C 1699.71 1769.91 1752.87 1771.54 1790.17 1769.12 z"/>
<path transform="translate(0,0)" fill="rgb(254,254,254)" d="M 1029.13 1631.03 C 1028.86 1674.31 1027.66 1726.39 1029.08 1769.18 C 1015.14 1768.43 997.135 1768.94 982.953 1768.95 L 900.936 1769.12 C 901.722 1736.75 900.605 1703.92 901.26 1671.51 C 901.527 1658.31 901.597 1644.28 900.97 1631.12 C 923.401 1632.59 949.714 1631.85 972.502 1631.66 C 990.48 1631.52 1011.48 1631.9 1029.13 1631.03 z"/>
<path transform="translate(0,0)" fill="rgb(254,254,254)" d="M 1154.21 1908.14 C 1195.83 1908.57 1237.45 1908.56 1279.07 1908.1 L 1278.54 2048 L 1154.22 2048 L 1154.21 1908.14 z"/>
<path transform="translate(0,0)" fill="rgb(254,254,254)" d="M 1406.03 1769.49 C 1444.32 1769.48 1494.51 1770.66 1532.09 1769.07 L 1532 1861.14 C 1532.01 1875.37 1531.5 1893.84 1532.17 1907.82 C 1518.5 1906.73 1499.63 1907.26 1485.55 1907.29 L 1406.45 1907.66 L 1406.03 1769.49 z"/>
<path transform="translate(0,0)" fill="rgb(254,254,254)" d="M 1029.08 1769.18 C 1049.16 1769.94 1070.33 1769.42 1090.5 1769.33 C 1111.45 1769.24 1133.27 1769.67 1154.14 1769.02 L 1154.18 1907.81 C 1115.78 1907.63 1066.48 1906.15 1029.04 1908.08 C 1029.69 1895.02 1029.16 1878.43 1029.22 1864.98 C 1029.39 1833.05 1029.34 1801.11 1029.08 1769.18 z"/>
<path transform="translate(0,0)" fill="rgb(254,254,254)" d="M 1623.77 1630.99 C 1631.38 1632.03 1652.11 1631.15 1660.62 1630.96 L 1661 1768.96 L 1532.29 1768.92 L 1532.11 1632.84 C 1538.93 1632.39 1545.19 1631.91 1551.97 1631.13 C 1560.04 1641.61 1568.76 1648.31 1582.49 1650 C 1594.55 1651.41 1606.66 1647.73 1615.88 1639.83 C 1619.08 1637.07 1621.32 1634.37 1623.77 1630.99 z"/>
<path transform="translate(0,0)" fill="rgb(254,254,254)" d="M 1085.37 1592.11 C 1107.93 1592.01 1131.63 1589.92 1154.03 1587.48 L 1154.05 1630.8 L 1029.13 1631.03 L 1029.21 1592.93 C 1044.35 1593.1 1071.2 1593.96 1085.37 1592.11 z"/>
<path transform="translate(0,0)" fill="rgb(254,254,254)" d="M 1405.36 1630.75 C 1405.99 1635.5 1406.87 1648.61 1404.82 1652.77 L 1397.55 1645.12 C 1398.77 1640.11 1397.47 1638.26 1398.48 1632.97 C 1401.24 1630.34 1400.53 1631.18 1405.36 1630.75 z"/>
<path transform="translate(0,0)" fill="rgb(231,231,231)" d="M 1789.91 1492.08 C 1828.63 1494.19 1878.3 1491.98 1918.27 1492.41 C 1918.86 1535.81 1919.94 1587.48 1918.39 1630.58 C 1960.65 1631.6 2005.48 1630.67 2048 1630.71 L 2048 1769.54 L 2048 1907.56 L 2048 2048 L 1918.04 2048 L 1790.31 2048 C 1790.64 2001.37 1790.58 1954.74 1790.15 1908.11 C 1789.8 1861.79 1789.81 1815.45 1790.17 1769.12 C 1791.23 1725.73 1790.77 1674.54 1790.03 1630.83 L 1789.91 1492.08 z"/>
<path transform="translate(0,0)" fill="rgb(254,254,254)" d="M 2048 1769.54 L 2048 1907.56 L 1918.74 1907.8 C 1919.6 1862.79 1918.8 1814.8 1918.65 1769.6 C 1960.24 1771 2005.67 1768.98 2048 1769.54 z"/>
<path transform="translate(0,0)" fill="rgb(254,254,254)" d="M 1790.15 1908.11 C 1803.46 1908.98 1817.96 1908.98 1831.35 1908.82 C 1859.95 1908.49 1889.6 1909.93 1918.07 1908.39 L 1918.04 2048 L 1790.31 2048 C 1790.64 2001.37 1790.58 1954.74 1790.15 1908.11 z"/>
<path transform="translate(0,0)" fill="rgb(254,254,254)" d="M 1790.03 1630.83 C 1802.08 1632.56 1828.04 1632.17 1841.01 1632 C 1865.92 1631.68 1893.22 1632.27 1918.06 1631.19 L 1918.01 1768.95 L 1833.65 1768.97 C 1820.22 1768.99 1803.1 1768.49 1790.17 1769.12 C 1791.23 1725.73 1790.77 1674.54 1790.03 1630.83 z"/>
<path transform="translate(0,0)" fill="rgb(43,50,42)" d="M 1661.71 1169.8 C 1694.01 1173.09 1711.78 1187.11 1722.81 1217.85 C 1733.68 1255.29 1722.33 1297.64 1707.25 1332.47 C 1703.65 1340.29 1699.93 1348.04 1696.1 1355.74 C 1664.83 1408.75 1635.39 1447.27 1591.3 1490.77 C 1581.4 1499.82 1572.12 1509.3 1561.9 1517.97 L 1561.23 1518.02 C 1555.58 1525.7 1549.38 1531.73 1539.55 1532.62 C 1507.54 1535.51 1475.13 1541.46 1443.26 1544.51 C 1443.52 1551.33 1444.72 1557.88 1440.68 1563.27 C 1438.08 1564.39 1438.96 1564.27 1436.25 1564.52 C 1421 1566.7 1305.97 1570.06 1297.41 1565.1 L 1299.65 1558.28 L 1300.68 1552.52 L 1304.56 1550.96 C 1305.28 1541.42 1311.92 1513.09 1313.98 1502.83 C 1317.43 1485.68 1320.36 1468.91 1323.36 1451.61 C 1326.38 1434.16 1332.34 1413.7 1334.29 1396.17 C 1334.92 1389.34 1335.36 1385.88 1337.62 1379.42 C 1345.38 1378.63 1367.88 1379.06 1378.16 1378.47 C 1383.55 1380.5 1389.48 1380.55 1394.91 1378.63 C 1412.74 1379.22 1431.25 1378.9 1449.14 1378.82 C 1451.02 1375.35 1453.65 1362.86 1454.64 1358.59 C 1456.48 1336.1 1465.77 1311.22 1463.1 1288.66 C 1461.84 1278.04 1455.11 1265.72 1453.34 1254.3 C 1471.39 1241.15 1490.29 1230.09 1509.38 1218.57 C 1513.69 1217 1528.03 1209.2 1532.85 1206.71 L 1549.41 1198.92 C 1556.78 1195.38 1566.4 1191.54 1574.06 1188.22 C 1607.75 1176.41 1625.23 1170.02 1661.71 1169.8 z"/>
<path transform="translate(0,0)" fill="rgb(92,137,77)" d="M 1588.92 1324.42 C 1622.58 1340.84 1659.33 1349.75 1696.1 1355.74 C 1664.83 1408.75 1635.39 1447.27 1591.3 1490.77 C 1581.4 1499.82 1572.12 1509.3 1561.9 1517.97 L 1561.23 1518.02 C 1550.37 1514.84 1467.56 1525.57 1452.54 1528.44 C 1455.85 1481.84 1449.43 1490.22 1478.39 1452.79 C 1512.85 1408 1549.75 1365.15 1588.92 1324.42 z"/>
<path transform="translate(0,0)" fill="rgb(169,176,177)" d="M 1661.71 1169.8 C 1694.01 1173.09 1711.78 1187.11 1722.81 1217.85 C 1733.68 1255.29 1722.33 1297.64 1707.25 1332.47 C 1662.89 1326.88 1630.65 1316.4 1589.72 1299.08 C 1577.54 1263.76 1573.96 1225.33 1574.06 1188.22 C 1607.75 1176.41 1625.23 1170.02 1661.71 1169.8 z"/>
<path transform="translate(0,0)" fill="rgb(210,219,210)" d="M 1640.94 1203.69 C 1663.85 1199.08 1686.15 1213.95 1690.71 1236.87 C 1695.27 1259.79 1680.35 1282.05 1657.42 1286.56 C 1634.57 1291.05 1612.39 1276.19 1607.85 1253.35 C 1603.3 1230.5 1618.11 1208.29 1640.94 1203.69 z"/>
<path transform="translate(0,0)" fill="rgb(117,169,95)" d="M 1334.29 1396.17 C 1346.17 1398.01 1376.81 1396.26 1390.3 1396.76 L 1400.74 1396.54 C 1416.46 1396.19 1432.18 1396.12 1447.91 1396.33 C 1444.09 1442.97 1437.94 1504.15 1436.74 1550.37 C 1392.68 1551 1348.62 1551.2 1304.56 1550.96 C 1305.28 1541.42 1311.92 1513.09 1313.98 1502.83 C 1317.43 1485.68 1320.36 1468.91 1323.36 1451.61 C 1326.38 1434.16 1332.34 1413.7 1334.29 1396.17 z"/>
<path transform="translate(0,0)" fill="rgb(154,189,118)" d="M 1390.3 1396.76 L 1400.74 1396.54 C 1398.53 1415.06 1392.76 1544.51 1389.4 1548.95 C 1385.85 1550.45 1383.94 1549.98 1380.11 1549.74 C 1376.98 1545.64 1381.81 1503.22 1382.42 1495.13 C 1384.74 1462.32 1387.36 1429.52 1390.3 1396.76 z"/>
<path transform="translate(0,0)" fill="rgb(92,137,77)" d="M 1532.85 1206.71 L 1549.41 1198.92 C 1550.15 1216.61 1552.24 1256.26 1557.39 1273.21 C 1547.33 1279.04 1535.47 1289.15 1526.13 1296.64 C 1501.41 1316.24 1477.56 1336.91 1454.64 1358.59 C 1456.48 1336.1 1465.77 1311.22 1463.1 1288.66 C 1461.84 1278.04 1455.11 1265.72 1453.34 1254.3 C 1471.39 1241.15 1490.29 1230.09 1509.38 1218.57 C 1513.69 1217 1528.03 1209.2 1532.85 1206.71 z"/>
<path transform="translate(0,0)" fill="rgb(68,103,56)" d="M 1454.64 1358.59 C 1477.56 1336.91 1501.41 1316.24 1526.13 1296.64 C 1535.47 1289.15 1547.33 1279.04 1557.39 1273.21 C 1560.36 1287.82 1563.06 1297.27 1568.2 1311.27 C 1528.7 1352.28 1491.83 1395.75 1457.82 1441.41 C 1457.96 1425.75 1459.92 1410.24 1460.85 1394.63 C 1461.17 1389.21 1461.48 1384.47 1457.75 1380.35 C 1453.78 1378.81 1453.48 1378.89 1449.14 1378.82 C 1451.02 1375.35 1453.65 1362.86 1454.64 1358.59 z"/>
<path transform="translate(0,0)" fill="rgb(231,231,231)" d="M 1918 694.961 L 2048 695.107 L 2048 832.213 C 2006.07 832.315 1959.75 833.583 1918.33 832.215 C 1919.35 877.541 1918.85 924.667 1918.78 970.056 L 1789.99 970.32 C 1789.19 926.152 1789.57 876.38 1790.06 832.14 C 1802.95 831.477 1820.81 832.001 1834.03 832.001 C 1862.04 832.078 1890.05 831.972 1918.05 831.685 L 1918 694.961 z"/>
<path transform="translate(0,0)" fill="rgb(231,231,231)" d="M 1533.01 995.082 C 1532.14 1031.64 1532.75 1067.75 1532.5 1104.27 C 1548.9 1105.3 1568.46 1104.78 1585.1 1104.73 C 1610.45 1104.82 1635.8 1104.58 1661.15 1104.02 L 1661.71 1169.8 C 1625.23 1170.02 1607.75 1176.41 1574.06 1188.22 C 1566.4 1191.54 1556.78 1195.38 1549.41 1198.92 L 1532.85 1206.71 C 1528.03 1209.2 1513.69 1217 1509.38 1218.57 C 1490.29 1230.09 1471.39 1241.15 1453.34 1254.3 L 1442.42 1218.34 C 1431.98 1181.43 1419.27 1143.8 1408.31 1106.75 C 1406.57 1102.1 1405.58 1098.78 1404.27 1093.97 C 1400.91 1084.52 1398.14 1074.44 1395.33 1064.78 L 1392.51 1057.75 C 1394.64 1055.66 1402.78 1052.9 1406.02 1051.64 C 1415.76 1048.29 1430.34 1042.08 1440.06 1038.06 C 1470.54 1025.45 1504.29 1011.19 1533.01 995.082 z"/>
<path transform="translate(0,0)" fill="rgb(254,254,254)" d="M 1408.31 1106.75 C 1408.88 1106.3 1409.45 1105.84 1410.01 1105.38 C 1445.31 1103.86 1498.7 1106.53 1532.16 1104.66 C 1532.1 1134.31 1530.8 1177.67 1532.85 1206.71 C 1528.03 1209.2 1513.69 1217 1509.38 1218.57 C 1490.29 1230.09 1471.39 1241.15 1453.34 1254.3 L 1442.42 1218.34 C 1431.98 1181.43 1419.27 1143.8 1408.31 1106.75 z"/>
<path transform="translate(0,0)" fill="rgb(231,231,231)" d="M 1442.42 1218.34 C 1451.45 1216.45 1501.86 1216.26 1509.38 1218.57 C 1490.29 1230.09 1471.39 1241.15 1453.34 1254.3 L 1442.42 1218.34 z"/>
<path transform="translate(0,0)" fill="rgb(254,254,254)" d="M 1392.51 1057.75 C 1394.64 1055.66 1402.78 1052.9 1406.02 1051.64 C 1406.26 1060.11 1407.73 1087.54 1404.27 1093.97 C 1400.91 1084.52 1398.14 1074.44 1395.33 1064.78 L 1392.51 1057.75 z"/>
<path transform="translate(0,0)" fill="rgb(231,231,231)" d="M 1790.07 1104.37 C 1832.82 1104.5 1875.57 1104.41 1918.31 1104.09 C 1918.72 1141.86 1918.93 1179.64 1918.94 1217.41 C 1877.45 1217.05 1830.89 1218.58 1790.16 1217.06 C 1789.97 1179.82 1789.37 1141.51 1790.07 1104.37 z"/>
<path transform="translate(0,0)" fill="rgb(231,231,231)" d="M 1722.81 1217.85 C 1740.93 1216 1771.01 1216.96 1790.16 1217.06 L 1790.6 1355.12 C 1760.97 1355.7 1725.47 1356.82 1696.1 1355.74 C 1699.93 1348.04 1703.65 1340.29 1707.25 1332.47 C 1722.33 1297.64 1733.68 1255.29 1722.81 1217.85 z"/>
<path transform="translate(0,0)" fill="rgb(92,137,77)" d="M 1663.37 1520.62 C 1680.78 1514.01 1700.46 1519.74 1711.61 1534.65 C 1722.76 1549.56 1722.69 1570.06 1711.43 1584.89 C 1700.17 1599.72 1680.45 1605.3 1663.09 1598.56 C 1653.46 1594.83 1645.56 1587.66 1640.91 1578.45 C 1633.08 1562.91 1635.7 1544.14 1647.49 1531.35 C 1651.88 1526.59 1657.32 1522.92 1663.37 1520.62 z"/>
<path transform="translate(0,0)" fill="rgb(231,231,231)" d="M 1591.3 1490.77 C 1595.9 1493.6 1652.37 1492.02 1661.87 1491.98 L 1663.37 1520.62 C 1657.32 1522.92 1651.88 1526.59 1647.49 1531.35 C 1633.1 1529.52 1571.98 1522.39 1561.9 1517.97 C 1572.12 1509.3 1581.4 1499.82 1591.3 1490.77 z"/>
<path transform="translate(0,0)" fill="rgb(210,219,210)" d="M 700.425 1059.31 C 706.011 1065.88 906.444 1158.04 919.849 1160.21 C 1021.33 1201.18 1072.9 1206.86 1175.77 1163.36 C 1232.13 1141.31 1287.64 1117.16 1342.2 1090.96 C 1358.69 1083.02 1379.65 1073.58 1395.33 1064.78 C 1398.14 1074.44 1400.91 1084.52 1404.27 1093.97 C 1405.58 1098.78 1406.57 1102.1 1408.31 1106.75 C 1419.27 1143.8 1431.98 1181.43 1442.42 1218.34 L 1453.34 1254.3 C 1455.11 1265.72 1461.84 1278.04 1463.1 1288.66 C 1465.77 1311.22 1456.48 1336.1 1454.64 1358.59 C 1453.65 1362.86 1451.02 1375.35 1449.14 1378.82 C 1431.25 1378.9 1412.74 1379.22 1394.91 1378.63 C 1389.48 1380.55 1383.55 1380.5 1378.16 1378.47 C 1367.88 1379.06 1345.38 1378.63 1337.62 1379.42 C 1335.36 1385.88 1334.92 1389.34 1334.29 1396.17 C 1332.34 1413.7 1326.38 1434.16 1323.36 1451.61 C 1320.36 1468.91 1317.43 1485.68 1313.98 1502.83 C 1311.92 1513.09 1305.28 1541.42 1304.56 1550.96 L 1300.68 1552.52 L 1299.65 1558.28 C 1291.29 1560.13 1286.45 1561.57 1278.32 1564.36 C 1237.7 1575.91 1196.09 1583.65 1154.03 1587.48 C 1131.63 1589.92 1107.93 1592.01 1085.37 1592.11 C 1071.2 1593.96 1044.35 1593.1 1029.21 1592.93 L 1029.13 1631.03 C 1011.48 1631.9 990.48 1631.52 972.502 1631.66 C 949.714 1631.85 923.401 1632.59 900.97 1631.12 C 900.049 1613.96 900.602 1597.34 900.358 1580.19 C 870.964 1572.32 838.749 1570.14 809.727 1558.56 C 806.932 1557.44 798.206 1554.62 795.461 1554.78 C 794.901 1557.97 794.149 1561.51 793.969 1564.7 C 792.317 1566 790.842 1566.73 788.548 1566.76 C 746.487 1567.18 703.951 1567.98 661.958 1565.67 C 661.575 1565.58 661.191 1565.5 660.807 1565.42 C 654.569 1564.56 653.92 1564.99 649.256 1560.99 C 647.021 1552.09 646.015 1550.17 646.122 1541.07 C 618.885 1538.46 580.188 1534.63 552.52 1530.66 C 548.852 1530.14 536.902 1518.65 533.243 1515.25 L 532.452 1515.57 L 514.1 1518.48 C 514.315 1512.52 514.634 1506.57 515.056 1500.62 C 465.771 1459.12 423.591 1409.85 390.181 1354.76 L 390.131 1354.21 C 386.189 1347 382.285 1339.76 378.42 1332.5 C 361.395 1299.6 348.396 1254.06 358.251 1217.2 C 364.385 1197.68 372.494 1188.51 389.67 1178.08 C 427.462 1161.5 469.45 1172.49 507.081 1185.47 L 516.901 1189.24 C 521.326 1190.95 526.466 1192.78 530.708 1194.77 C 547.992 1202.33 562.137 1209.75 578.907 1217.85 C 596.613 1228.24 623.566 1243.55 639.132 1256.57 C 641.442 1249.8 643.579 1242.97 645.541 1236.09 C 647.467 1229.81 649.43 1223.53 651.431 1217.27 C 662.61 1179.56 674.062 1141.92 685.788 1104.38 C 691.046 1090.22 694.921 1073.95 700.425 1059.31 z"/>
<path transform="translate(0,0)" fill="rgb(43,50,42)" d="M 389.67 1178.08 C 427.462 1161.5 469.45 1172.49 507.081 1185.47 L 516.901 1189.24 C 521.326 1190.95 526.466 1192.78 530.708 1194.77 C 547.992 1202.33 562.137 1209.75 578.907 1217.85 C 596.613 1228.24 623.566 1243.55 639.132 1256.57 C 636.992 1275.31 626.895 1284.43 630.474 1306.39 C 633.586 1325.47 638.456 1345.96 640.616 1364.95 C 642.898 1370.37 643.162 1373.05 644.093 1378.73 C 651.628 1378.94 690.101 1379.81 695.379 1378.48 C 703.179 1380.08 707.149 1380.28 715.176 1378.69 C 724.901 1379.57 746.158 1380.63 755.436 1379.66 C 757.565 1384.29 757.905 1390.06 758.548 1395.22 C 762.904 1427.38 771.286 1459.66 776.601 1491.72 C 779.317 1508.09 788.436 1535.02 787.978 1550.75 L 795.07 1551.89 L 795.461 1554.78 C 794.901 1557.97 794.149 1561.51 793.969 1564.7 C 792.317 1566 790.842 1566.73 788.548 1566.76 C 746.487 1567.18 703.951 1567.98 661.958 1565.67 C 661.575 1565.58 661.191 1565.5 660.807 1565.42 C 654.569 1564.56 653.92 1564.99 649.256 1560.99 C 647.021 1552.09 646.015 1550.17 646.122 1541.07 C 618.885 1538.46 580.188 1534.63 552.52 1530.66 C 548.852 1530.14 536.902 1518.65 533.243 1515.25 L 532.452 1515.57 L 514.1 1518.48 C 514.315 1512.52 514.634 1506.57 515.056 1500.62 C 465.771 1459.12 423.591 1409.85 390.181 1354.76 L 390.131 1354.21 C 386.189 1347 382.285 1339.76 378.42 1332.5 C 361.395 1299.6 348.396 1254.06 358.251 1217.2 C 364.385 1197.68 372.494 1188.51 389.67 1178.08 z"/>
<path transform="translate(0,0)" fill="rgb(92,137,77)" d="M 390.131 1354.21 C 419.269 1349.36 467.966 1335.02 493.966 1320.79 C 506.207 1333.8 519.428 1345.65 531.624 1358.57 C 567.592 1396.66 605.743 1438.53 636.937 1480.61 C 637.643 1494.45 638.57 1511.8 640.157 1525.44 C 619.133 1522.92 598.082 1520.63 577.007 1518.58 C 565.045 1517.3 544.745 1514.42 533.243 1515.25 L 532.452 1515.57 L 514.1 1518.48 C 514.315 1512.52 514.634 1506.57 515.056 1500.62 C 465.771 1459.12 423.591 1409.85 390.181 1354.76 L 390.131 1354.21 z"/>
<path transform="translate(0,0)" fill="rgb(210,219,210)" d="M 515.056 1500.62 C 518.221 1503.21 530.679 1513 532.452 1515.57 L 514.1 1518.48 C 514.315 1512.52 514.634 1506.57 515.056 1500.62 z"/>
<path transform="translate(0,0)" fill="rgb(117,169,95)" d="M 758.548 1395.22 C 762.904 1427.38 771.286 1459.66 776.601 1491.72 C 779.317 1508.09 788.436 1535.02 787.978 1550.75 L 795.07 1551.89 L 795.461 1554.78 C 794.901 1557.97 794.149 1561.51 793.969 1564.7 C 792.317 1566 790.842 1566.73 788.548 1566.76 C 746.487 1567.18 703.951 1567.98 661.958 1565.67 C 661.575 1565.58 661.191 1565.5 660.807 1565.42 C 654.569 1564.56 653.92 1564.99 649.256 1560.99 C 647.021 1552.09 646.015 1550.17 646.122 1541.07 C 649.108 1541.63 652.298 1542.31 655.289 1542.66 C 654.642 1521.67 652.185 1498.44 650.51 1477.32 L 644.821 1396.22 L 721.267 1396.34 C 728.679 1396.32 752.845 1396.8 758.548 1395.22 z"/>
<path transform="translate(0,0)" fill="rgb(43,50,42)" d="M 646.122 1541.07 C 649.108 1541.63 652.298 1542.31 655.289 1542.66 C 655.755 1546.2 655.286 1547.66 657.208 1549.9 C 664.921 1551.17 690.991 1550.47 700.053 1550.43 L 710.929 1550.4 L 712.1 1550.27 C 730.708 1551.12 769.443 1551.48 787.978 1550.75 L 795.07 1551.89 L 795.461 1554.78 C 794.901 1557.97 794.149 1561.51 793.969 1564.7 C 792.317 1566 790.842 1566.73 788.548 1566.76 C 746.487 1567.18 703.951 1567.98 661.958 1565.67 C 661.575 1565.58 661.191 1565.5 660.807 1565.42 C 654.569 1564.56 653.92 1564.99 649.256 1560.99 C 647.021 1552.09 646.015 1550.17 646.122 1541.07 z"/>
<path transform="translate(0,0)" fill="rgb(50,69,49)" d="M 646.122 1541.07 C 649.108 1541.63 652.298 1542.31 655.289 1542.66 C 655.755 1546.2 655.286 1547.66 657.208 1549.9 C 664.921 1551.17 690.991 1550.47 700.053 1550.43 L 710.929 1550.4 C 697.82 1555.2 660.386 1545.41 651.032 1555.23 C 650.756 1555.52 649.508 1560.05 649.256 1560.99 C 647.021 1552.09 646.015 1550.17 646.122 1541.07 z"/>
<path transform="translate(0,0)" fill="rgb(154,189,118)" d="M 691.008 1397.39 L 701.718 1397.48 C 703.73 1431.3 706.017 1465.1 708.578 1498.88 C 709.604 1513.23 712.018 1536.42 712.1 1550.27 L 710.929 1550.4 L 700.053 1550.43 C 697.58 1501.04 694.76 1446.56 691.008 1397.39 z"/>
<path transform="translate(0,0)" fill="rgb(169,176,177)" d="M 389.67 1178.08 C 427.462 1161.5 469.45 1172.49 507.081 1185.47 C 506.646 1220.8 500.464 1263.45 490.132 1297.16 C 444.11 1316.24 427.286 1322.28 378.42 1332.5 C 361.395 1299.6 348.396 1254.06 358.251 1217.2 C 364.385 1197.68 372.494 1188.51 389.67 1178.08 z"/>
<path transform="translate(0,0)" fill="rgb(210,219,210)" d="M 419.593 1203.66 C 434.513 1200.21 450.139 1205.06 460.476 1216.36 C 470.813 1227.66 474.256 1243.65 469.484 1258.21 C 464.712 1272.76 452.467 1283.61 437.445 1286.6 C 414.722 1291.11 392.578 1276.57 387.702 1253.92 C 382.827 1231.27 397.024 1208.9 419.593 1203.66 z"/>
<path transform="translate(0,0)" fill="rgb(92,137,77)" d="M 530.708 1194.77 C 547.992 1202.33 562.137 1209.75 578.907 1217.85 C 596.613 1228.24 623.566 1243.55 639.132 1256.57 C 636.992 1275.31 626.895 1284.43 630.474 1306.39 C 633.586 1325.47 638.456 1345.96 640.616 1364.95 C 605.973 1331.09 563.752 1296.53 521.999 1271.93 C 526.781 1246.34 529.037 1220.7 530.708 1194.77 z"/>
<path transform="translate(0,0)" fill="rgb(68,103,56)" d="M 521.999 1271.93 C 563.752 1296.53 605.973 1331.09 640.616 1364.95 C 642.898 1370.37 643.162 1373.05 644.093 1378.73 C 638.335 1379.21 632.604 1380.36 632.486 1387.24 C 632.183 1404.88 634.049 1423.76 635.077 1441.36 C 609.436 1402.46 546.197 1336.72 512.299 1306.45 C 516.438 1294.53 519.086 1284.07 521.999 1271.93 z"/>
<path transform="translate(0,0)" fill="rgb(137,145,145)" d="M 700.425 1059.31 C 706.011 1065.88 906.444 1158.04 919.849 1160.21 C 819.396 1244.65 794.449 1378.98 793.545 1504.27 C 793.43 1520.21 794.641 1535.98 795.07 1551.89 L 787.978 1550.75 C 788.436 1535.02 779.317 1508.09 776.601 1491.72 C 771.286 1459.66 762.904 1427.38 758.548 1395.22 C 757.905 1390.06 757.565 1384.29 755.436 1379.66 C 746.158 1380.63 724.901 1379.57 715.176 1378.69 C 707.149 1380.28 703.179 1380.08 695.379 1378.48 C 690.101 1379.81 651.628 1378.94 644.093 1378.73 C 643.162 1373.05 642.898 1370.37 640.616 1364.95 C 638.456 1345.96 633.586 1325.47 630.474 1306.39 C 626.895 1284.43 636.992 1275.31 639.132 1256.57 C 641.442 1249.8 643.579 1242.97 645.541 1236.09 C 647.467 1229.81 649.43 1223.53 651.431 1217.27 C 662.61 1179.56 674.062 1141.92 685.788 1104.38 C 691.046 1090.22 694.921 1073.95 700.425 1059.31 z"/>
<path transform="translate(0,0)" fill="rgb(169,176,177)" d="M 718.408 1251.31 C 689.625 1232.24 678.681 1195.25 692.446 1163.58 C 706.212 1131.91 740.718 1114.69 774.303 1122.72 C 807.889 1130.75 830.87 1161.72 828.82 1196.19 C 826.771 1230.66 800.282 1258.69 765.981 1262.69 C 749.278 1264.63 732.425 1260.6 718.408 1251.31 z"/>
<path transform="translate(0,0)" fill="rgb(210,219,210)" d="M 750.125 1154.41 C 770.904 1150.28 791.079 1163.84 795.087 1184.65 C 799.094 1205.45 785.402 1225.54 764.574 1229.42 C 743.927 1233.27 724.05 1219.72 720.077 1199.1 C 716.105 1178.47 729.527 1158.51 750.125 1154.41 z"/>
<path transform="translate(0,0)" fill="rgb(96,103,103)" d="M 718.408 1251.31 C 732.425 1260.6 749.278 1264.63 765.981 1262.69 C 760.289 1290.69 750.751 1319.56 743.948 1347.44 C 741.731 1356.53 737.472 1370.13 736.194 1379.02 C 741.141 1379.05 750.94 1378.85 755.436 1379.66 C 746.158 1380.63 724.901 1379.57 715.176 1378.69 C 707.149 1380.28 703.179 1380.08 695.379 1378.48 C 676.643 1365.02 675.815 1346.49 695.685 1333.55 C 694.626 1330.31 715.589 1260.82 718.408 1251.31 z"/>
<path transform="translate(0,0)" fill="rgb(210,219,210)" d="M 695.685 1333.55 C 703.67 1331.48 709.818 1330.83 717.379 1335.05 C 723.38 1338.43 727.691 1344.17 729.265 1350.88 C 730.708 1357.04 729.628 1363.52 726.266 1368.89 C 723.31 1373.64 719.86 1375.89 715.176 1378.69 C 707.149 1380.28 703.179 1380.08 695.379 1378.48 C 676.643 1365.02 675.815 1346.49 695.685 1333.55 z"/>
<path transform="translate(0,0)" fill="rgb(137,145,145)" d="M 1175.77 1163.36 C 1232.13 1141.31 1287.64 1117.16 1342.2 1090.96 C 1358.69 1083.02 1379.65 1073.58 1395.33 1064.78 C 1398.14 1074.44 1400.91 1084.52 1404.27 1093.97 C 1405.58 1098.78 1406.57 1102.1 1408.31 1106.75 C 1419.27 1143.8 1431.98 1181.43 1442.42 1218.34 L 1453.34 1254.3 C 1455.11 1265.72 1461.84 1278.04 1463.1 1288.66 C 1465.77 1311.22 1456.48 1336.1 1454.64 1358.59 C 1453.65 1362.86 1451.02 1375.35 1449.14 1378.82 C 1431.25 1378.9 1412.74 1379.22 1394.91 1378.63 C 1389.48 1380.55 1383.55 1380.5 1378.16 1378.47 C 1367.88 1379.06 1345.38 1378.63 1337.62 1379.42 C 1335.36 1385.88 1334.92 1389.34 1334.29 1396.17 C 1332.34 1413.7 1326.38 1434.16 1323.36 1451.61 C 1320.36 1468.91 1317.43 1485.68 1313.98 1502.83 C 1311.92 1513.09 1305.28 1541.42 1304.56 1550.96 L 1300.68 1552.52 C 1300.14 1538.37 1301.2 1518.07 1301.19 1503.14 C 1301.18 1476.97 1299.63 1450.83 1296.54 1424.84 C 1285.37 1328.25 1254.98 1226.18 1175.77 1163.36 z"/>
<path transform="translate(0,0)" fill="rgb(169,176,177)" d="M 1335.13 1258.37 C 1299.92 1260.89 1268.23 1237.1 1260.81 1202.59 C 1253.39 1168.08 1272.51 1133.38 1305.64 1121.21 C 1338.78 1109.03 1375.82 1123.11 1392.5 1154.21 C 1409.19 1185.32 1400.43 1223.96 1371.96 1244.83 C 1361.21 1252.72 1348.44 1257.41 1335.13 1258.37 z"/>
<path transform="translate(0,0)" fill="rgb(210,219,210)" d="M 1325.04 1149.48 C 1346.17 1146.73 1365.49 1161.71 1368.08 1182.85 C 1370.68 1204 1355.56 1223.21 1334.4 1225.66 C 1313.45 1228.08 1294.47 1213.15 1291.9 1192.21 C 1289.33 1171.28 1304.13 1152.19 1325.04 1149.48 z"/>
<path transform="translate(0,0)" fill="rgb(96,103,103)" d="M 1371.96 1244.83 C 1377.69 1262.67 1382.4 1282.65 1387.82 1300.77 C 1389.52 1306.43 1396.09 1328.47 1396.83 1333.41 C 1405.9 1337.52 1411.55 1346.73 1411.13 1356.67 C 1410.71 1366.61 1404.29 1375.3 1394.91 1378.63 C 1389.48 1380.55 1383.55 1380.5 1378.16 1378.47 C 1367.88 1379.06 1345.38 1378.63 1337.62 1379.42 C 1340.84 1378.7 1351.91 1378.81 1355.86 1378.77 C 1354.38 1368.24 1350.42 1356.33 1347.9 1345.81 C 1340.9 1316.65 1332.47 1287.82 1324.5 1258.89 C 1328.88 1259.07 1330.77 1258.89 1335.13 1258.37 C 1348.44 1257.41 1361.21 1252.72 1371.96 1244.83 z"/>
<path transform="translate(0,0)" fill="rgb(210,219,210)" d="M 1378.16 1378.47 C 1369.82 1375.33 1363.86 1367.9 1362.6 1359.08 C 1361.34 1350.26 1364.99 1341.46 1372.12 1336.11 C 1379.25 1330.77 1388.72 1329.73 1396.83 1333.41 C 1405.9 1337.52 1411.55 1346.73 1411.13 1356.67 C 1410.71 1366.61 1404.29 1375.3 1394.91 1378.63 C 1389.48 1380.55 1383.55 1380.5 1378.16 1378.47 z"/>
<path transform="translate(0,0)" fill="rgb(231,231,231)" d="M 900.358 1580.19 C 940.849 1588.26 983.072 1590.67 1024.27 1591.98 C 1042.03 1592.54 1069.86 1590.81 1085.37 1592.11 C 1071.2 1593.96 1044.35 1593.1 1029.21 1592.93 L 1029.13 1631.03 C 1011.48 1631.9 990.48 1631.52 972.502 1631.66 C 949.714 1631.85 923.401 1632.59 900.97 1631.12 C 900.049 1613.96 900.602 1597.34 900.358 1580.19 z"/>
<path transform="translate(0,0)" fill="rgb(231,231,231)" d="M 795.461 1554.78 C 798.206 1554.62 806.932 1557.44 809.727 1558.56 C 838.749 1570.14 870.964 1572.32 900.358 1580.19 C 900.602 1597.34 900.049 1613.96 900.97 1631.12 C 901.597 1644.28 901.527 1658.31 901.26 1671.51 C 900.605 1703.92 901.722 1736.75 900.936 1769.12 C 900.683 1813.51 899.565 1864.07 900.993 1908.22 L 900.989 2048 L 770.9 2048 L 517.178 2048 L 388.682 2048 L 389.005 1908.14 C 389.637 1862.26 389.2 1815.55 389.161 1769.62 C 411.585 1770.16 435.737 1769.56 458.288 1769.57 C 476.649 1769.57 498.893 1769.95 516.99 1768.87 C 518.023 1730.14 515.228 1683.83 517.298 1646.28 C 531.028 1645.12 538.502 1641.55 548.292 1632.42 C 553.93 1632.18 574.056 1630.87 577.64 1632.86 C 589.649 1617.44 600.959 1612.77 620.002 1615.16 C 624.53 1607.92 629.147 1600.73 633.854 1593.61 C 640.628 1586.21 644.939 1576.35 651.789 1568.94 C 655.472 1564.96 656.012 1565.63 660.807 1565.42 C 661.191 1565.5 661.575 1565.58 661.958 1565.67 C 703.951 1567.98 746.487 1567.18 788.548 1566.76 C 790.842 1566.73 792.317 1566 793.969 1564.7 C 794.149 1561.51 794.901 1557.97 795.461 1554.78 z"/>
<path transform="translate(0,0)" fill="rgb(117,169,95)" d="M 795.461 1554.78 C 798.206 1554.62 806.932 1557.44 809.727 1558.56 C 838.749 1570.14 870.964 1572.32 900.358 1580.19 C 900.602 1597.34 900.049 1613.96 900.97 1631.12 C 901.597 1644.28 901.527 1658.31 901.26 1671.51 C 900.605 1703.92 901.722 1736.75 900.936 1769.12 C 880.987 1770.01 858.203 1769.48 838.087 1769.47 C 816.421 1769.46 792.599 1769.9 771.07 1769.05 C 744.505 1768.13 713.098 1768.92 686.108 1768.92 L 516.99 1768.87 C 518.023 1730.14 515.228 1683.83 517.298 1646.28 C 531.028 1645.12 538.502 1641.55 548.292 1632.42 C 553.93 1632.18 574.056 1630.87 577.64 1632.86 C 589.649 1617.44 600.959 1612.77 620.002 1615.16 C 624.53 1607.92 629.147 1600.73 633.854 1593.61 C 640.628 1586.21 644.939 1576.35 651.789 1568.94 C 655.472 1564.96 656.012 1565.63 660.807 1565.42 C 661.191 1565.5 661.575 1565.58 661.958 1565.67 C 703.951 1567.98 746.487 1567.18 788.548 1566.76 C 790.842 1566.73 792.317 1566 793.969 1564.7 C 794.149 1561.51 794.901 1557.97 795.461 1554.78 z"/>
<path transform="translate(0,0)" fill="rgb(254,254,254)" d="M 743.762 1630.54 C 752.32 1630.94 762.276 1631.67 770.729 1631.75 C 771.163 1677.42 770.248 1723.61 771.07 1769.05 C 744.505 1768.13 713.098 1768.92 686.108 1768.92 L 516.99 1768.87 C 518.023 1730.14 515.228 1683.83 517.298 1646.28 C 531.028 1645.12 538.502 1641.55 548.292 1632.42 C 553.93 1632.18 574.056 1630.87 577.64 1632.86 C 569.04 1649.54 568.669 1669.36 582.568 1683.38 C 590.774 1691.52 601.987 1695.9 613.539 1695.47 C 624.234 1695.2 634.351 1690.56 641.543 1682.64 C 649.901 1673.43 652.806 1661.82 652.243 1649.64 C 657.115 1644.26 662.05 1638.34 666.812 1632.82 C 672.702 1632.41 688.265 1630.24 693.25 1633.19 C 694.389 1633.86 694.671 1636.76 695.057 1638.41 C 695.071 1639.19 694.941 1643.02 694.659 1643.34 C 682.397 1657.56 674.416 1667.69 679.849 1687.42 C 684.939 1705.91 698.819 1716.63 717.901 1716.86 C 728.711 1716.93 739.084 1712.6 746.65 1704.88 C 764.399 1686.97 761.852 1663.22 744.012 1646.62 L 743.762 1630.54 z"/>
<path transform="translate(0,0)" fill="rgb(231,231,231)" d="M 744.032 1607.45 C 762.788 1618.86 793.387 1638.59 811.771 1652.52 C 812.694 1653.98 814.15 1658.41 814.469 1659.85 C 822.595 1696.5 873.343 1699.95 889.069 1666.45 C 894.835 1654.17 892.973 1642.7 888.286 1630.24 L 900.97 1631.12 C 901.597 1644.28 901.527 1658.31 901.26 1671.51 C 900.605 1703.92 901.722 1736.75 900.936 1769.12 C 880.987 1770.01 858.203 1769.48 838.087 1769.47 C 816.421 1769.46 792.599 1769.9 771.07 1769.05 C 770.248 1723.61 771.163 1677.42 770.729 1631.75 C 762.276 1631.67 752.32 1630.94 743.762 1630.54 C 743.577 1623.14 743.894 1614.92 744.032 1607.45 z"/>
<path transform="translate(0,0)" fill="rgb(254,254,254)" d="M 795.461 1554.78 C 798.206 1554.62 806.932 1557.44 809.727 1558.56 C 838.749 1570.14 870.964 1572.32 900.358 1580.19 C 900.602 1597.34 900.049 1613.96 900.97 1631.12 L 888.286 1630.24 C 877.541 1611.49 858.329 1604.61 838.218 1612.25 C 831.845 1604.99 799.681 1568.31 793.969 1564.7 C 794.149 1561.51 794.901 1557.97 795.461 1554.78 z"/>
<path transform="translate(0,0)" fill="rgb(210,219,210)" d="M 693.825 1598.98 C 694.604 1612.11 695.015 1625.25 695.057 1638.41 C 694.671 1636.76 694.389 1633.86 693.25 1633.19 C 688.265 1630.24 672.702 1632.41 666.812 1632.82 C 674.131 1623.86 687.899 1607.97 693.825 1598.98 z"/>
<path transform="translate(0,0)" fill="rgb(254,254,254)" d="M 517.129 1908.54 C 534.808 1909.04 552.441 1908.65 570.119 1908.56 C 637.016 1908.23 704.137 1909.85 771.01 1908.61 L 770.9 2048 L 517.178 2048 L 517.129 1908.54 z"/>
<path transform="translate(0,0)" fill="rgb(254,254,254)" d="M 771.07 1769.05 C 792.599 1769.9 816.421 1769.46 838.087 1769.47 C 858.203 1769.48 880.987 1770.01 900.936 1769.12 C 900.683 1813.51 899.565 1864.07 900.993 1908.22 C 887.713 1907.27 868.349 1907.85 854.489 1907.87 L 771.151 1907.97 C 771.439 1861.66 771.412 1815.35 771.07 1769.05 z"/>
<path transform="translate(0,0)" fill="rgb(254,254,254)" d="M 516.99 1768.87 C 516.594 1815.23 516.614 1861.58 517.05 1907.94 L 430.135 1907.56 C 420.845 1907.57 396.773 1907.17 389.005 1908.14 C 389.637 1862.26 389.2 1815.55 389.161 1769.62 C 411.585 1770.16 435.737 1769.56 458.288 1769.57 C 476.649 1769.57 498.893 1769.95 516.99 1768.87 z"/>
<path transform="translate(0,0)" fill="rgb(254,254,254)" d="M 131.882 1104.41 L 260.74 1104.54 C 260.968 1142 260.923 1179.46 260.605 1216.91 C 292.028 1217.08 327.204 1216.27 358.251 1217.2 C 348.396 1254.06 361.395 1299.6 378.42 1332.5 C 382.285 1339.76 386.189 1347 390.131 1354.21 L 390.181 1354.76 C 423.591 1409.85 465.771 1459.12 515.056 1500.62 C 514.634 1506.57 514.315 1512.52 514.1 1518.48 C 492.452 1521.75 470.736 1524.54 448.966 1526.86 C 435.107 1509.42 406.238 1514.46 390.28 1526.9 C 388.567 1519.57 389.237 1500.73 389.41 1492.29 C 346.619 1492.37 302.562 1493 259.962 1492.51 L 259.993 1630.77 C 219.69 1630.75 171.614 1629.62 131.921 1631.03 C 120.915 1632.13 99.5933 1631.53 87.7074 1631.59 C 58.4718 1631.89 29.2335 1631.81 7.10543e-15 1631.34 L 0 1492.04 L 0 1355.39 L 0 1217.35 L 0 1104.56 L 84.3177 1104.86 C 99.2952 1104.88 117.09 1105.3 131.882 1104.41 z"/>
<path transform="translate(0,0)" fill="rgb(231,231,231)" d="M 131.882 1104.41 L 260.74 1104.54 C 260.968 1142 260.923 1179.46 260.605 1216.91 C 292.028 1217.08 327.204 1216.27 358.251 1217.2 C 348.396 1254.06 361.395 1299.6 378.42 1332.5 C 382.285 1339.76 386.189 1347 390.131 1354.21 L 390.181 1354.76 C 379.28 1356.16 355.583 1355.32 343.578 1355.24 C 315.759 1354.89 287.937 1355 260.122 1355.56 C 259.781 1309.44 259.801 1263.33 260.181 1217.21 C 234.778 1217.88 209.366 1218.12 183.954 1217.93 C 168.403 1217.96 146.913 1218.53 131.821 1217.33 C 132.054 1263.22 132 1309.1 131.659 1354.99 L 0 1355.39 L 0 1217.35 L 0 1104.56 L 84.3177 1104.86 C 99.2952 1104.88 117.09 1105.3 131.882 1104.41 z"/>
<path transform="translate(0,0)" fill="rgb(254,254,254)" d="M 131.882 1104.41 C 130.875 1140.01 131.119 1181.35 131.777 1217.02 C 90.2148 1217.11 40.7758 1215.93 0 1217.35 L 0 1104.56 L 84.3177 1104.86 C 99.2952 1104.88 117.09 1105.3 131.882 1104.41 z"/>
<path transform="translate(0,0)" fill="rgb(231,231,231)" d="M 0 1492.04 C 42.9131 1492.04 89.1472 1491.2 131.839 1492.35 L 131.921 1631.03 C 120.915 1632.13 99.5933 1631.53 87.7074 1631.59 C 58.4718 1631.89 29.2335 1631.81 7.10543e-15 1631.34 L 0 1492.04 z"/>
<path transform="translate(0,0)" fill="rgb(254,254,254)" d="M 131.908 1907.95 C 130.551 1954.98 131.825 2001.19 131.551 2048 L 0 2048 L 0 1908.54 C 41.1764 1907.85 92.2327 1910.28 131.908 1907.95 z"/>
<path transform="translate(0,0)" fill="rgb(254,254,254)" d="M 131.921 1631.03 C 131.475 1675.04 130.281 1725.16 131.617 1768.88 L 0 1768.79 L 0 1631.34 C 29.2335 1631.81 58.4718 1631.89 87.7074 1631.59 C 99.5933 1631.53 120.915 1632.13 131.921 1631.03 z"/>
<path transform="translate(0,0)" fill="rgb(254,254,254)" d="M 389.005 1908.14 L 388.682 2048 L 260.407 2048 C 260.957 2001.45 260.928 1954.89 260.322 1908.34 C 267.701 1908.68 275.85 1908.75 283.23 1908.62 C 318.181 1908.01 354.144 1909.73 389.005 1908.14 z"/>
<path transform="translate(0,0)" fill="rgb(254,254,254)" d="M 131.953 1769.27 C 174.097 1770.03 217.354 1769.21 259.766 1769.5 C 260.637 1782.17 260.033 1801.36 260.003 1814.49 C 259.818 1845.57 259.861 1876.64 260.13 1907.72 C 221.235 1906.66 171.166 1906.86 131.908 1907.95 L 131.953 1769.27 z"/>
<path transform="translate(0,0)" fill="rgb(254,254,254)" d="M 388.938 1630.96 C 387.999 1676.18 388.876 1723.48 388.634 1768.91 L 299.705 1769.01 C 292.949 1769.02 265.175 1769.54 260.734 1768.3 C 260.892 1722.74 260.733 1677.19 260.257 1631.64 L 344.899 1631.52 C 357.133 1631.51 377.231 1632.07 388.938 1630.96 z"/>
<path transform="translate(0,0)" fill="rgb(68,103,56)" d="M 533.243 1515.25 C 536.902 1518.65 548.852 1530.14 552.52 1530.66 C 580.188 1534.63 618.885 1538.46 646.122 1541.07 C 646.015 1550.17 647.021 1552.09 649.256 1560.99 C 653.92 1564.99 654.569 1564.56 660.807 1565.42 C 656.012 1565.63 655.472 1564.96 651.789 1568.94 C 644.939 1576.35 640.628 1586.21 633.854 1593.61 C 629.147 1600.73 624.53 1607.92 620.002 1615.16 C 600.959 1612.77 589.649 1617.44 577.64 1632.86 C 574.056 1630.87 553.93 1632.18 548.292 1632.42 C 538.502 1641.55 531.028 1645.12 517.298 1646.28 C 500.883 1644.53 495.496 1641.31 483.971 1629.79 C 470.484 1609.51 473.093 1590.38 489.038 1573.03 L 488.758 1571.54 C 478.109 1573.3 469.613 1574.49 458.783 1575.47 C 460.664 1550.96 465.459 1549.28 448.966 1526.86 C 470.736 1524.54 492.452 1521.75 514.1 1518.48 L 532.452 1515.57 L 533.243 1515.25 z"/>
<path transform="translate(0,0)" fill="rgb(92,137,77)" d="M 488.758 1571.54 C 494.18 1569.83 499.185 1567.51 504.578 1565.82 C 533.568 1556.73 558.003 1577.82 558.172 1607.05 C 558.192 1610.48 557.747 1611.16 559.761 1613.71 C 555.434 1615.84 553.655 1625.49 548.292 1632.42 C 538.502 1641.55 531.028 1645.12 517.298 1646.28 C 500.883 1644.53 495.496 1641.31 483.971 1629.79 C 470.484 1609.51 473.093 1590.38 489.038 1573.03 L 488.758 1571.54 z"/>
<path transform="translate(0,0)" fill="rgb(210,219,210)" d="M 633.854 1593.61 C 629.147 1600.73 624.53 1607.92 620.002 1615.16 C 600.959 1612.77 589.649 1617.44 577.64 1632.86 C 574.056 1630.87 553.93 1632.18 548.292 1632.42 C 553.655 1625.49 555.434 1615.84 559.761 1613.71 C 584.514 1607.21 609.212 1600.51 633.854 1593.61 z"/>
<path transform="translate(0,0)" fill="rgb(92,137,77)" d="M 390.28 1526.9 C 406.238 1514.46 435.107 1509.42 448.966 1526.86 C 465.459 1549.28 460.664 1550.96 458.783 1575.47 C 454.806 1578.18 453.63 1582.76 450.453 1585.84 C 432.817 1602.98 409.373 1601.91 391.106 1587.35 C 373.611 1567.17 374.666 1547.52 390.28 1526.9 z"/>
<path transform="translate(0,0)" fill="rgb(254,254,254)" d="M 488.758 1571.54 L 489.038 1573.03 C 473.093 1590.38 470.484 1609.51 483.971 1629.79 C 476.471 1632.75 404.689 1630.14 388.938 1630.96 C 389.346 1622.11 387.854 1591.88 391.106 1587.35 C 409.373 1601.91 432.817 1602.98 450.453 1585.84 C 453.63 1582.76 454.806 1578.18 458.783 1575.47 C 469.613 1574.49 478.109 1573.3 488.758 1571.54 z"/>
<path transform="translate(0,0)" fill="rgb(254,254,254)" d="M 131.964 417.246 C 160.142 417.604 188.323 417.732 216.503 417.631 C 231.012 417.603 245.79 417.057 260.224 417.849 L 389.041 418.021 C 388.248 461.898 387.94 512.677 388.925 556.491 L 467.91 556.37 C 474.102 556.347 498.241 555.577 502.613 556.709 L 503.412 558.697 C 498.846 613.568 507.164 648.112 536.047 694.717 C 530.161 696.22 522.911 695.543 516.668 695.864 C 517.02 741.18 516.38 786.638 516.965 831.916 C 516.962 841.711 516.228 888.996 519.417 894.087 L 520.765 894.477 C 517.823 902.725 514.131 911.111 510.72 919.21 C 506.651 925.448 506.025 930.438 512.202 935.806 L 519.208 947.221 C 525.514 955.08 532.272 962.566 539.446 969.641 C 574.001 999.279 601.977 1012.21 643.006 1030.3 C 656.476 1036.1 669.636 1041.3 683.331 1046.53 C 685.867 1047.5 700.106 1052.93 701.579 1053.81 L 700.425 1059.31 C 694.921 1073.95 691.046 1090.22 685.788 1104.38 C 674.062 1141.92 662.61 1179.56 651.431 1217.27 C 649.43 1223.53 647.467 1229.81 645.541 1236.09 C 643.579 1242.97 641.442 1249.8 639.132 1256.57 C 623.566 1243.55 596.613 1228.24 578.907 1217.85 C 562.137 1209.75 547.992 1202.33 530.708 1194.77 C 526.466 1192.78 521.326 1190.95 516.901 1189.24 L 507.081 1185.47 C 469.45 1172.49 427.462 1161.5 389.67 1178.08 C 372.494 1188.51 364.385 1197.68 358.251 1217.2 C 327.204 1216.27 292.028 1217.08 260.605 1216.91 C 260.923 1179.46 260.968 1142 260.74 1104.54 L 131.882 1104.41 C 117.09 1105.3 99.2952 1104.88 84.3177 1104.86 L 0 1104.56 L 0 969.833 L 0 832.579 L 0 694.983 L 0 417.836 C 40.0298 417.88 92.9294 419.42 131.964 417.246 z"/>
<path transform="translate(0,0)" fill="rgb(254,254,254)" d="M 388.974 831.929 C 427.98 831.748 478.802 830.156 516.965 831.916 C 516.962 841.711 516.228 888.996 519.417 894.087 L 520.765 894.477 C 517.823 902.725 514.131 911.111 510.72 919.21 C 506.651 925.448 506.025 930.438 512.202 935.806 L 519.208 947.221 C 525.514 955.08 532.272 962.566 539.446 969.641 C 574.001 999.279 601.977 1012.21 643.006 1030.3 C 656.476 1036.1 669.636 1041.3 683.331 1046.53 C 685.867 1047.5 700.106 1052.93 701.579 1053.81 L 700.425 1059.31 C 694.921 1073.95 691.046 1090.22 685.788 1104.38 C 674.062 1141.92 662.61 1179.56 651.431 1217.27 C 649.43 1223.53 647.467 1229.81 645.541 1236.09 C 643.579 1242.97 641.442 1249.8 639.132 1256.57 C 623.566 1243.55 596.613 1228.24 578.907 1217.85 C 562.137 1209.75 547.992 1202.33 530.708 1194.77 C 526.466 1192.78 521.326 1190.95 516.901 1189.24 L 507.081 1185.47 C 469.45 1172.49 427.462 1161.5 389.67 1178.08 C 372.494 1188.51 364.385 1197.68 358.251 1217.2 C 327.204 1216.27 292.028 1217.08 260.605 1216.91 C 260.923 1179.46 260.968 1142 260.74 1104.54 L 131.882 1104.41 C 131.277 1060.25 131.867 1014.6 131.824 970.311 C 173.663 971.384 218.547 970.453 260.604 970.332 C 259.812 925.223 260.702 877.793 260.257 832.186 C 298.321 833.183 351.652 834.045 388.974 831.929 z"/>
<path transform="translate(0,0)" fill="rgb(231,231,231)" d="M 539.446 969.641 C 574.001 999.279 601.977 1012.21 643.006 1030.3 C 656.476 1036.1 669.636 1041.3 683.331 1046.53 C 685.867 1047.5 700.106 1052.93 701.579 1053.81 L 700.425 1059.31 C 694.921 1073.95 691.046 1090.22 685.788 1104.38 C 674.062 1141.92 662.61 1179.56 651.431 1217.27 C 649.43 1223.53 647.467 1229.81 645.541 1236.09 C 643.579 1242.97 641.442 1249.8 639.132 1256.57 C 623.566 1243.55 596.613 1228.24 578.907 1217.85 C 562.137 1209.75 547.992 1202.33 530.708 1194.77 C 526.466 1192.78 521.326 1190.95 516.901 1189.24 L 507.081 1185.47 C 469.45 1172.49 427.462 1161.5 389.67 1178.08 C 388.857 1172.51 389.035 1158.22 389.015 1152.17 L 388.92 1104.06 C 429.789 1105.36 475.504 1104.16 516.826 1104.23 C 516.641 1059.54 516.681 1014.85 516.946 970.16 C 524.921 970.227 531.519 970.327 539.446 969.641 z"/>
<path transform="translate(0,0)" fill="rgb(254,254,254)" d="M 517.048 1104.88 C 557.317 1105.24 601.957 1105.79 642.094 1104.86 L 641.968 1175.24 C 641.957 1185.07 641.393 1207.58 643.106 1216.2 C 645.455 1218.13 647.855 1217.53 651.431 1217.27 C 649.43 1223.53 647.467 1229.81 645.541 1236.09 C 643.579 1242.97 641.442 1249.8 639.132 1256.57 C 623.566 1243.55 596.613 1228.24 578.907 1217.85 C 562.137 1209.75 547.992 1202.33 530.708 1194.77 C 526.466 1192.78 521.326 1190.95 516.901 1189.24 L 517.048 1104.88 z"/>
<path transform="translate(0,0)" fill="rgb(231,231,231)" d="M 578.907 1217.85 C 597.752 1216.58 622.684 1217.2 641.975 1217.14 C 642.337 1222.23 642.125 1232.94 645.541 1236.09 C 643.579 1242.97 641.442 1249.8 639.132 1256.57 C 623.566 1243.55 596.613 1228.24 578.907 1217.85 z"/>
<path transform="translate(0,0)" fill="rgb(254,254,254)" d="M 643.006 1030.3 C 656.476 1036.1 669.636 1041.3 683.331 1046.53 C 685.867 1047.5 700.106 1052.93 701.579 1053.81 L 700.425 1059.31 C 694.921 1073.95 691.046 1090.22 685.788 1104.38 C 671.398 1104.13 656.561 1104.37 642.135 1104.43 C 642.187 1092.21 640.966 1038.57 643.006 1030.3 z"/>
<path transform="translate(0,0)" fill="rgb(231,231,231)" d="M 388.974 831.929 C 427.98 831.748 478.802 830.156 516.965 831.916 C 516.962 841.711 516.228 888.996 519.417 894.087 L 520.765 894.477 C 517.823 902.725 514.131 911.111 510.72 919.21 C 506.651 925.448 506.025 930.438 512.202 935.806 L 519.208 947.221 C 516.372 952.152 516.781 963.575 516.638 969.798 C 474.103 970.453 431.562 970.64 389.024 970.359 C 388.279 924.219 388.262 878.07 388.974 831.929 z"/>
<path transform="translate(0,0)" fill="rgb(231,231,231)" d="M 259.77 694.98 L 389.514 694.952 C 388.902 740.209 390.208 787.105 388.974 831.929 C 351.652 834.045 298.321 833.183 260.257 832.186 C 260.702 877.793 259.812 925.223 260.604 970.332 C 218.547 970.453 173.663 971.384 131.824 970.311 C 131.867 1014.6 131.277 1060.25 131.882 1104.41 C 117.09 1105.3 99.2952 1104.88 84.3177 1104.86 L 0 1104.56 L 0 969.833 L 0 832.579 C 43.7399 832.045 88.1478 833.226 131.732 831.925 C 172.561 831.81 219.511 830.661 259.982 831.882 C 259.969 786.822 260.626 739.912 259.77 694.98 z"/>
<path transform="translate(0,0)" fill="rgb(254,254,254)" d="M 0 832.579 C 43.7399 832.045 88.1478 833.226 131.732 831.925 C 130.855 877.949 130.7 923.985 131.267 970.014 C 87.5123 969.632 43.7555 969.571 7.10543e-15 969.833 L 0 832.579 z"/>
<path transform="translate(0,0)" fill="rgb(231,231,231)" d="M 0 694.983 C 43.6007 694.875 88.5394 695.401 131.987 694.772 C 131.338 740.558 132.285 786.211 131.732 831.925 C 88.1478 833.226 43.7399 832.045 0 832.579 L 0 694.983 z"/>
<path transform="translate(0,0)" fill="rgb(231,231,231)" d="M 131.964 417.246 C 160.142 417.604 188.323 417.732 216.503 417.631 C 231.012 417.603 245.79 417.057 260.224 417.849 C 261.125 433.68 260.578 454.515 260.589 470.761 C 260.725 499.229 260.631 527.698 260.309 556.164 C 217.473 556.471 174.635 556.465 131.799 556.146 C 131.333 509.847 131.388 463.544 131.964 417.246 z"/>
</svg>